<svg width="60" height="60" viewBox="0 0 60 60" fill="none" xmlns="http://www.w3.org/2000/svg">
<g clip-path="url(#clip0_1_100)">
<g filter="url(#filter0_d_1_100)">
<path d="M9.47516 47.8282C9.47516 46.9777 9.4542 46.1271 9.47516 45.2783C9.49612 44.6269 9.20096 44.2706 8.60191 44.0872C6.95846 43.586 5.31502 43.0865 3.6803 42.5538C1.23521 41.7609 -0.161987 39.6686 0.0580713 37.1571C0.141903 36.1494 0.582008 35.2814 1.18106 34.4868C2.1329 33.2398 3.06379 31.977 4.0331 30.744C4.43479 30.2323 4.45048 29.8044 4.04354 29.2874C3.08646 28.0649 2.16259 26.8318 1.23171 25.5971C-1.1278 22.4656 0.108714 18.5989 3.85145 17.413C5.36392 16.9327 6.88337 16.4716 8.39234 15.9983C9.32148 15.7084 9.46642 15.5128 9.46642 14.561C9.46642 13.0572 9.46642 11.5535 9.46642 10.0498C9.48214 6.48692 12.6765 4.04357 16.1241 4.98493C17.8025 5.44601 19.4546 5.99789 21.119 6.50612C22.0063 6.77683 22.2874 6.68077 22.8568 5.93851C23.7702 4.74565 24.6749 3.54408 25.5866 2.35122C27.9845 -0.792469 32.0224 -0.778486 34.4186 2.36171C35.3443 3.57378 36.2804 4.77712 37.1798 6.0084C37.6199 6.61268 38.1404 6.74716 38.8303 6.53235C40.5104 5.99966 42.1853 5.4495 43.8846 4.98318C47.3287 4.04008 50.5126 6.49042 50.5213 10.062C50.5213 11.3247 50.5213 12.5892 50.5213 13.8519C50.5213 15.546 50.2751 15.6124 52.2346 16.1835C53.6947 16.6114 55.1565 17.0567 56.5851 17.5702C59.8336 18.7596 60.9828 22.4726 58.9796 25.2844C58.0207 26.6327 57.0043 27.9426 55.9809 29.2438C55.5617 29.7677 55.5407 30.2131 55.9704 30.7527C56.9187 31.9473 57.8234 33.1734 58.7438 34.3907C61.112 37.5222 59.9174 41.3645 56.1747 42.5992C54.6675 43.0952 53.1445 43.5441 51.6338 44.0139C50.6488 44.3195 50.5283 44.4802 50.5283 45.4862C50.5283 46.969 50.5283 48.4552 50.5283 49.9328C50.5143 53.5375 47.3252 55.9774 43.8392 55.015C42.1818 54.5592 40.5506 54.0143 38.9071 53.5131C37.9745 53.2284 37.716 53.3122 37.1187 54.0946C36.207 55.291 35.3041 56.4908 34.3889 57.6837C32.0189 60.7767 27.9723 60.7715 25.5988 57.6715C24.6575 56.4489 23.7126 55.2264 22.8044 53.9741C22.3783 53.3943 21.8665 53.2616 21.2046 53.4694C19.5035 54.0038 17.8077 54.5662 16.0891 55.0413C13.2546 55.8167 10.2856 54.168 9.66555 51.405C9.40706 50.2541 9.48042 49.0281 9.40182 47.8352L9.47516 47.8282ZM20.3698 41.9478C20.8728 41.9687 21.3828 41.5985 21.863 41.1147C28.2669 34.7016 34.6771 28.2902 41.0937 21.8805C41.238 21.7474 41.3727 21.6044 41.4971 21.4526C41.7501 21.1483 41.9084 20.7766 41.9524 20.3834C41.9965 19.9901 41.9244 19.5926 41.7452 19.2398C41.3801 18.4627 40.7147 17.9929 39.8624 18.1029C39.2884 18.1668 38.7477 18.4051 38.3133 18.7857C31.7686 25.2781 25.2437 31.7902 18.7386 38.3221C18.6769 38.3816 18.6186 38.4446 18.5639 38.5107C18.2949 38.8172 18.1237 39.1973 18.0727 39.602C18.0216 40.0067 18.093 40.4173 18.2775 40.7811C18.639 41.56 19.2904 41.9443 20.3698 41.9513V41.9478ZM26.6257 21.7984C26.6301 21.2481 26.5255 20.7023 26.318 20.1926C26.1105 19.6829 25.8042 19.2193 25.4166 18.8285C25.0291 18.4377 24.568 18.1275 24.0601 17.9158C23.5521 17.704 23.0072 17.5948 22.4569 17.5946C21.3455 17.6006 20.2815 18.0453 19.4965 18.832C18.7115 19.6187 18.269 20.6836 18.2653 21.795C18.273 22.8952 18.713 23.9482 19.4904 24.7269C20.2677 25.5055 21.32 25.9473 22.4202 25.9569C22.9698 25.9638 23.5154 25.8615 24.0252 25.656C24.5351 25.4505 24.999 25.1459 25.3902 24.7597C25.7814 24.3736 26.0921 23.9136 26.3042 23.4065C26.5162 22.8993 26.6256 22.3551 26.6257 21.8054V21.7984ZM33.3899 38.2068C33.3842 38.757 33.4873 39.303 33.6934 39.8133C33.8995 40.3235 34.2045 40.7879 34.5909 41.1798C34.9772 41.5716 35.4373 41.8832 35.9446 42.0966C36.4519 42.3099 36.9963 42.4208 37.5466 42.4228C38.6584 42.4196 39.724 41.9773 40.5113 41.1923C41.2986 40.4073 41.744 39.343 41.7504 38.2312C41.7454 37.131 41.308 36.0769 40.5327 35.2963C39.7573 34.5157 38.7061 34.0712 37.606 34.0588C37.0554 34.0503 36.5086 34.1513 35.9974 34.3561C35.4863 34.5609 35.021 34.8654 34.6286 35.2517C34.2363 35.6381 33.9247 36.0986 33.712 36.6065C33.4994 37.1145 33.3898 37.6596 33.3899 38.2103V38.2068Z" fill="#01F5AB"/>
</g>
</g>
<defs>
<filter id="filter0_d_1_100" x="-3.9711" y="0" width="67.9422" height="68" filterUnits="userSpaceOnUse" color-interpolation-filters="sRGB">
<feFlood flood-opacity="0" result="BackgroundImageFix"/>
<feColorMatrix in="SourceAlpha" type="matrix" values="0 0 0 0 0 0 0 0 0 0 0 0 0 0 0 0 0 0 127 0" result="hardAlpha"/>
<feOffset dy="4"/>
<feGaussianBlur stdDeviation="2"/>
<feComposite in2="hardAlpha" operator="out"/>
<feColorMatrix type="matrix" values="0 0 0 0 0 0 0 0 0 0 0 0 0 0 0 0 0 0 0.25 0"/>
<feBlend mode="normal" in2="BackgroundImageFix" result="effect1_dropShadow_1_100"/>
<feBlend mode="normal" in="SourceGraphic" in2="effect1_dropShadow_1_100" result="shape"/>
</filter>
<clipPath id="clip0_1_100">
<rect width="60" height="60" fill="white"/>
</clipPath>
</defs>
</svg>
