<svg width="60" height="60" viewBox="0 0 60 60" fill="none" xmlns="http://www.w3.org/2000/svg">
<g clip-path="url(#clip0_33_717)">
<g filter="url(#filter0_d_33_717)">
<path d="M57.4784 20.153C57.4784 23.554 57.6556 26.9692 57.4395 30.3561C56.9913 37.1723 54.3183 43.11 49.7924 48.2257C47.2417 51.106 44.1825 53.3237 40.8027 55.1341C38.546 56.3439 36.3158 57.6034 34.0715 58.854C31.333 60.3844 28.6121 60.3862 25.8824 58.8274C22.5168 56.9001 18.9882 55.1943 15.7856 53.0244C8.22361 47.9086 3.88018 40.6903 2.66502 31.6315C2.49701 30.2948 2.41479 28.9488 2.41882 27.6016C2.39225 22.0536 2.40641 16.5075 2.40818 10.9507C2.40818 9.48752 2.91305 8.80733 4.339 8.44065C12.7618 6.27651 21.0215 3.52109 29.0567 0.194894C29.3621 0.0647088 29.691 -0.00107385 30.0229 0.00166931C30.3549 0.00441246 30.6826 0.0756163 30.9858 0.210831C37.0207 2.71097 43.185 4.88638 49.4524 6.72772C51.4416 7.31051 53.4486 7.84014 55.4502 8.38041C57.1224 8.83034 57.5936 9.42199 57.5936 11.1367V20.1548L57.4784 20.153ZM27.188 30.3029C25.7354 28.8292 24.4051 27.4404 23.0323 26.0977C22.8362 25.9007 22.6025 25.7452 22.3451 25.6403C22.0877 25.5354 21.8119 25.4833 21.534 25.4871C21.256 25.4909 20.9817 25.5505 20.7273 25.6624C20.4729 25.7743 20.2435 25.9362 20.0529 26.1384C19.6671 26.5288 19.4498 27.055 19.4478 27.6039C19.4458 28.1527 19.6593 28.6804 20.0422 29.0736C21.9128 30.9867 23.8023 32.8762 25.7106 34.742C25.9002 34.9386 26.1276 35.0948 26.379 35.2014C26.6305 35.3079 26.9009 35.3626 27.174 35.3621C27.4471 35.3616 27.7173 35.3059 27.9684 35.1985C28.2195 35.091 28.4463 34.9339 28.6352 34.7367C32.417 30.9832 36.1918 27.2243 39.9224 23.4212C40.2908 23.0439 40.4821 22.3583 40.5051 21.8092C40.5423 20.943 40.0162 20.3071 39.1978 19.9989C38.3334 19.6712 37.5452 19.8518 36.8845 20.5108C34.2416 23.1501 31.5999 25.7919 28.9593 28.4359C28.3907 29.0116 27.8398 29.6139 27.1844 30.3083L27.188 30.3029Z" fill="#01F5AB"/>
</g>
</g>
<defs>
<filter id="filter0_d_33_717" x="-1.59717" y="0.00158691" width="63.1907" height="67.9976" filterUnits="userSpaceOnUse" color-interpolation-filters="sRGB">
<feFlood flood-opacity="0" result="BackgroundImageFix"/>
<feColorMatrix in="SourceAlpha" type="matrix" values="0 0 0 0 0 0 0 0 0 0 0 0 0 0 0 0 0 0 127 0" result="hardAlpha"/>
<feOffset dy="4"/>
<feGaussianBlur stdDeviation="2"/>
<feComposite in2="hardAlpha" operator="out"/>
<feColorMatrix type="matrix" values="0 0 0 0 0 0 0 0 0 0 0 0 0 0 0 0 0 0 0.25 0"/>
<feBlend mode="normal" in2="BackgroundImageFix" result="effect1_dropShadow_33_717"/>
<feBlend mode="normal" in="SourceGraphic" in2="effect1_dropShadow_33_717" result="shape"/>
</filter>
<clipPath id="clip0_33_717">
<rect width="55.1872" height="60" fill="white" transform="translate(2.40649)"/>
</clipPath>
</defs>
</svg>
