<svg width="120" height="20" viewBox="0 0 120 20" fill="none" xmlns="http://www.w3.org/2000/svg">
<g clip-path="url(#clip0_4_869)">
<path d="M27.4752 8.78942H34.071C34.071 8.23473 33.8681 7.76119 33.4622 7.36882C33.0698 6.96293 32.5962 6.75998 32.0415 6.75998H29.5047C28.95 6.75998 28.4697 6.96293 28.0638 7.36882C27.6715 7.76119 27.4752 8.23473 27.4752 8.78942ZM29.5047 15.3852C28.3682 15.3852 27.4076 14.9928 26.6228 14.2081C25.8382 13.4233 25.4458 12.4628 25.4458 11.3263V8.78942C25.4458 7.65294 25.8382 6.69234 26.6228 5.90761C27.4076 5.12289 28.3682 4.73053 29.5047 4.73053H32.0415C33.1781 4.73053 34.1386 5.12289 34.9234 5.90761C35.7081 6.69234 36.1005 7.65294 36.1005 8.78942V10.8189H27.4752V11.3263C27.4752 11.881 27.6715 12.3613 28.0638 12.7672C28.4697 13.1596 28.95 13.3557 29.5047 13.3557H34.5784V15.3852H29.5047ZM42.2285 15.3852C41.092 15.3852 40.1314 14.9928 39.3466 14.2081C38.5619 13.4233 38.1695 12.4628 38.1695 11.3263V0.671606H40.199V4.73053H44.7653V6.75998H40.199V11.3263C40.199 11.881 40.3952 12.3613 40.7875 12.7672C41.1935 13.1596 41.6738 13.3557 42.2285 13.3557H44.7653V15.3852H42.2285ZM48.7014 11.3263C48.7014 11.881 48.8975 12.3613 49.2899 12.7672C49.6958 13.1596 50.1761 13.3557 50.7309 13.3557H53.2676V15.3852H50.7309C49.5943 15.3852 48.6337 14.9928 47.849 14.2081C47.0642 13.4233 46.6719 12.4628 46.6719 11.3263V8.78942H55.2971C55.2971 8.23473 55.0942 7.76119 54.6882 7.36882C54.2959 6.96293 53.8224 6.75998 53.2676 6.75998H48.194V4.73053H53.2676C54.4042 4.73053 55.3648 5.12289 56.1495 5.90761C56.9342 6.69234 57.3265 7.65294 57.3265 8.78942V15.3852H55.2971V10.8189H48.7014V11.3263ZM61.8215 4.4667V6.49615H70.4467V8.52565H70.3452V11.3263C70.3452 12.4628 69.9529 13.4233 69.1682 14.2081C68.3834 14.9928 67.4228 15.3852 66.2863 15.3852H61.8215V13.3557H66.2863C66.841 13.3557 67.3145 13.1596 67.7069 12.7672C68.1128 12.3613 68.3158 11.881 68.3158 11.3263V8.52565H59.792V4.4667C59.792 3.34373 60.1844 2.38988 60.9691 1.60516C61.7674 0.806906 62.728 0.407776 63.8509 0.407776H68.3158V2.43724H63.8509C63.2962 2.43724 62.8159 2.64018 62.41 3.04608C62.0177 3.43844 61.8215 3.91198 61.8215 4.4667ZM90.3546 4.73053H92.6885L88.2239 15.3852H85.89L82.6023 7.53118L79.3146 15.3852H76.9808L72.5158 4.73053H74.8497L78.1377 12.5845L81.4254 4.73053H83.7792L87.0669 12.5845L90.3546 4.73053ZM95.0977 11.3263C95.0977 11.881 95.2938 12.3613 95.6862 12.7672C96.0923 13.1596 96.5723 13.3557 97.1269 13.3557H99.6639V15.3852H97.1269C95.9908 15.3852 95.03 14.9928 94.2454 14.2081C93.4608 13.4233 93.0677 12.4628 93.0677 11.3263V8.78942H101.693C101.693 8.23473 101.49 7.76119 101.085 7.36882C100.692 6.96293 100.218 6.75998 99.6639 6.75998H94.59V4.73053H99.6639C100.8 4.73053 101.761 5.12289 102.545 5.90761C103.33 6.69234 103.723 7.65294 103.723 8.78942V15.3852H101.693V10.8189H95.0977V11.3263ZM108.218 14.8373V19.4441H106.188V8.78942C106.188 7.65294 106.581 6.69234 107.365 5.90761C108.15 5.12289 109.111 4.73053 110.247 4.73053H112.784C113.921 4.73053 114.881 5.12289 115.665 5.90761C116.451 6.69234 116.843 7.65294 116.843 8.78942V11.3263C116.843 12.4628 116.451 13.4233 115.665 14.2081C114.881 14.9928 113.921 15.3852 112.784 15.3852H110.247C109.516 15.3852 108.84 15.2026 108.218 14.8373ZM108.218 8.78942V11.3263C108.218 11.881 108.414 12.3613 108.806 12.7672C109.212 13.1596 109.692 13.3557 110.247 13.3557H112.784C113.338 13.3557 113.812 13.1596 114.205 12.7672C114.611 12.3613 114.813 11.881 114.813 11.3263V8.78942C114.813 8.23473 114.611 7.76119 114.205 7.36882C113.812 6.96293 113.338 6.75998 112.784 6.75998H110.247C109.692 6.75998 109.212 6.96293 108.806 7.36882C108.414 7.76119 108.218 8.23473 108.218 8.78942Z" fill="white"/>
<path d="M2.30771 2.43268H20.2986L13.2892 12.2458" stroke="#00F5AB" stroke-width="5.45426"/>
<path d="M21.7004 16.2179H3.47589L10.5763 6.17108" stroke="#00958C" stroke-width="5.45426"/>
</g>
<defs>
<clipPath id="clip0_4_869">
<rect width="119.231" height="20" fill="white"/>
</clipPath>
</defs>
</svg>
