<svg width="489" height="691" viewBox="0 0 489 691" fill="none" xmlns="http://www.w3.org/2000/svg">
<g filter="url(#filter0_b_4_817)">
<path d="M3.57896 607.862L2.59267 608.027L2.59267 608.027L3.57896 607.862ZM57.318 528.182L57.7583 529.08L57.7583 529.08L57.318 528.182ZM405.142 484.423L405.239 485.419L405.239 485.419L405.142 484.423ZM405.743 484.349L405.883 485.339L405.883 485.339L405.743 484.349ZM486.398 397.487L487.388 397.352L487.388 397.352L486.398 397.487ZM387.915 326.555L387.884 327.555L387.884 327.555L387.915 326.555ZM385.753 326.436L385.656 327.431L385.656 327.431L385.753 326.436ZM96.4768 291.084L96.2515 292.058L96.2515 292.058L96.4768 291.084ZM57.2919 179.83L57.0286 178.866L57.0282 178.866L57.2919 179.83ZM57.3203 179.823L57.0597 178.857L57.057 178.858L57.3203 179.823ZM188.966 139.622L189.462 140.491L189.462 140.491L188.966 139.622ZM281.347 1.29289C280.957 0.902369 280.324 0.902369 279.933 1.29289L273.569 7.65685C273.179 8.04738 273.179 8.68054 273.569 9.07107C273.96 9.46159 274.593 9.46159 274.983 9.07107L280.64 3.41421L286.297 9.07107C286.688 9.46159 287.321 9.46159 287.711 9.07107C288.102 8.68054 288.102 8.04738 287.711 7.65685L281.347 1.29289ZM145.835 688.01C144.328 687.79 142.762 687.547 141.144 687.28L140.818 689.253C142.448 689.522 144.026 689.768 145.547 689.99L145.835 688.01ZM131.77 685.574C128.768 684.979 125.647 684.317 122.434 683.587L121.991 685.537C125.222 686.272 128.361 686.938 131.381 687.536L131.77 685.574ZM113.173 681.352C110.153 680.58 107.079 679.753 103.969 678.869L103.422 680.793C106.55 681.681 109.641 682.514 112.678 683.289L113.173 681.352ZM94.8261 676.134C91.8195 675.189 88.7975 674.192 85.7764 673.143L85.1205 675.033C88.1611 676.088 91.2017 677.091 94.2263 678.042L94.8261 676.134ZM76.8216 669.875C73.8552 668.737 70.9055 667.547 67.9882 666.306L67.2054 668.147C70.1459 669.398 73.1178 670.596 76.1052 671.742L76.8216 669.875ZM59.2983 662.404C56.41 661.034 53.5719 659.611 50.8005 658.132L49.8593 659.897C52.6603 661.391 55.5265 662.829 58.4413 664.211L59.2983 662.404ZM42.5327 653.432C39.7821 651.762 37.1244 650.031 34.5783 648.241L33.4278 649.877C36.0135 651.695 38.709 653.45 41.4947 655.141L42.5327 653.432ZM27.0538 642.487C24.5793 640.421 22.2587 638.284 20.1149 636.078L18.6805 637.472C20.8771 639.733 23.2493 641.916 25.7718 644.022L27.0538 642.487ZM13.9876 628.914C12.0792 626.344 10.4112 623.691 9.01225 620.955L7.23146 621.865C8.68521 624.709 10.4134 627.455 12.3819 630.106L13.9876 628.914ZM5.58455 612.258C5.16466 610.761 4.82354 609.241 4.56524 607.697L2.59267 608.027C2.86303 609.643 3.21993 611.233 3.65888 612.798L5.58455 612.258ZM4.56524 607.697C4.31315 606.191 4.09302 604.718 3.90379 603.279L1.92085 603.54C2.11324 605.003 2.33685 606.498 2.59267 608.027L4.56524 607.697ZM3.10004 594.431C2.95303 591.308 2.97035 588.364 3.13679 585.586L1.14037 585.467C0.969384 588.321 0.952125 591.336 1.10226 594.525L3.10004 594.431ZM4.2363 576.853C4.84057 573.81 5.65317 571.003 6.64473 568.405L4.77615 567.692C3.74304 570.399 2.89995 573.315 2.27461 576.463L4.2363 576.853ZM10.5197 560.564C12.0999 558.019 13.8857 555.714 15.834 553.606L14.3656 552.249C12.3365 554.443 10.4721 556.849 8.82066 559.509L10.5197 560.564ZM22.3247 547.682C24.6475 545.875 27.0987 544.235 29.6311 542.719L28.6036 541.003C26.0147 542.553 23.4942 544.238 21.0963 546.104L22.3247 547.682ZM37.438 538.488C40.1183 537.157 42.8267 535.909 45.5161 534.695L44.6933 532.873C41.9963 534.09 39.2618 535.349 36.5485 536.696L37.438 538.488ZM53.6929 531.006C55.0718 530.371 56.4299 529.731 57.7583 529.08L56.8778 527.284C55.568 527.926 54.2251 528.559 52.856 529.19L53.6929 531.006ZM57.7583 529.08C58.6656 528.635 60.0172 528.145 61.8107 527.617L61.2463 525.698C59.415 526.237 57.9366 526.765 56.8778 527.284L57.7583 529.08ZM70.7514 525.438C73.4547 524.865 76.494 524.271 79.8386 523.66L79.4791 521.693C76.1208 522.306 73.0624 522.903 70.3364 523.482L70.7514 525.438ZM88.9141 522.081C91.8054 521.6 94.854 521.11 98.0464 520.612L97.7385 518.636C94.5401 519.134 91.4846 519.625 88.5856 520.108L88.9141 522.081ZM107.102 519.237C110.043 518.802 113.079 518.361 116.203 517.917L115.921 515.937C112.794 516.382 109.754 516.823 106.809 517.259L107.102 519.237ZM125.362 516.636C128.369 516.223 131.444 515.806 134.578 515.388L134.313 513.405C131.176 513.824 128.1 514.241 125.089 514.655L125.362 516.636ZM143.675 514.188C146.682 513.796 149.735 513.402 152.83 513.008L152.577 511.024C149.481 511.418 146.426 511.812 143.416 512.204L143.675 514.188ZM162.045 511.844C165.054 511.468 168.094 511.091 171.162 510.714L170.918 508.729C167.849 509.106 164.807 509.483 161.797 509.86L162.045 511.844ZM180.34 509.595C183.38 509.228 186.442 508.86 189.522 508.493L189.285 506.507C186.204 506.874 183.141 507.242 180.1 507.61L180.34 509.595ZM198.677 507.409C201.729 507.05 204.794 506.692 207.868 506.335L207.637 504.348C204.562 504.706 201.496 505.064 198.444 505.423L198.677 507.409ZM217.032 505.277C220.088 504.926 223.15 504.576 226.213 504.228L225.988 502.241C222.923 502.589 219.861 502.939 216.803 503.29L217.032 505.277ZM235.388 503.191C238.453 502.846 241.516 502.504 244.574 502.163L244.352 500.175C241.294 500.516 238.23 500.859 235.164 501.204L235.388 503.191ZM253.741 501.147C256.817 500.807 259.884 500.47 262.937 500.136L262.719 498.148C259.666 498.482 256.598 498.819 253.521 499.159L253.741 501.147ZM272.119 499.135C275.194 498.802 278.251 498.471 281.286 498.144L281.072 496.156C278.037 496.483 274.979 496.813 271.903 497.147L272.119 499.135ZM290.499 497.156C293.58 496.827 296.633 496.502 299.652 496.182L299.441 494.193C296.421 494.513 293.368 494.838 290.287 495.167L290.499 497.156ZM308.855 495.209C311.968 494.881 315.04 494.559 318.065 494.242L317.857 492.253C314.832 492.57 311.759 492.892 308.645 493.22L308.855 495.209ZM327.205 493.29C330.335 492.964 333.404 492.647 336.406 492.337L336.201 490.347C333.198 490.657 330.128 490.975 326.999 491.3L327.205 493.29ZM345.64 491.387C348.796 491.064 351.862 490.751 354.829 490.449L354.626 488.459C351.659 488.761 348.592 489.074 345.436 489.398L345.64 491.387ZM363.988 489.519C367.194 489.195 370.252 488.887 373.15 488.596L372.95 486.606C370.052 486.897 366.993 487.205 363.787 487.529L363.988 489.519ZM382.36 487.674C385.793 487.332 388.895 487.024 391.629 486.754L391.433 484.763C388.697 485.034 385.595 485.341 382.162 485.684L382.36 487.674ZM400.748 485.856C403.186 485.618 404.721 485.469 405.239 485.419L405.046 483.428C404.528 483.478 402.992 483.627 400.553 483.866L400.748 485.856ZM405.239 485.419C405.3 485.413 405.352 485.407 405.398 485.402L405.188 483.414C405.149 483.418 405.104 483.422 405.046 483.428L405.239 485.419ZM405.733 485.36C405.777 485.354 405.824 485.347 405.883 485.339L405.604 483.359C405.544 483.367 405.494 483.374 405.453 483.38L405.733 485.36ZM405.883 485.339C407.326 485.136 408.877 484.854 410.519 484.496L410.093 482.542C408.494 482.891 406.991 483.163 405.604 483.359L405.883 485.339ZM419.599 482.001C422.416 481.082 425.37 479.994 428.405 478.737L427.64 476.89C424.652 478.127 421.745 479.197 418.979 480.099L419.599 482.001ZM436.947 474.835C439.686 473.464 442.446 471.963 445.19 470.333L444.168 468.613C441.467 470.218 438.749 471.696 436.052 473.046L436.947 474.835ZM453.073 465.234C455.617 463.443 458.113 461.535 460.527 459.508L459.241 457.976C456.873 459.964 454.423 461.838 451.922 463.598L453.073 465.234ZM467.44 453.123C469.638 450.882 471.724 448.524 473.664 446.048L472.09 444.815C470.198 447.228 468.162 449.531 466.012 451.723L467.44 453.123ZM479.012 438.274C480.62 435.578 482.051 432.766 483.273 429.837L481.427 429.067C480.244 431.903 478.856 434.631 477.295 437.249L479.012 438.274ZM486.24 420.856C486.981 417.848 487.503 414.737 487.777 411.521L485.784 411.352C485.519 414.461 485.015 417.47 484.298 420.378L486.24 420.856ZM487.863 402.062C487.762 400.513 487.605 398.943 487.388 397.352L485.407 397.621C485.617 399.166 485.769 400.69 485.867 402.192L487.863 402.062ZM487.388 397.352C487.173 395.764 486.901 394.208 486.578 392.682L484.621 393.097C484.935 394.574 485.197 396.082 485.407 397.621L487.388 397.352ZM483.917 383.596C482.785 380.6 481.44 377.744 479.912 375.022L478.168 376.001C479.649 378.638 480.951 381.404 482.046 384.303L483.917 383.596ZM474.709 367.129C472.793 364.619 470.718 362.246 468.512 360.004L467.086 361.407C469.237 363.593 471.258 365.903 473.119 368.342L474.709 367.129ZM461.536 353.663C459.101 351.676 456.567 349.813 453.965 348.069L452.852 349.73C455.406 351.442 457.889 353.268 460.272 355.212L461.536 353.663ZM445.942 343.165C443.182 341.626 440.383 340.203 437.575 338.891L436.729 340.703C439.496 341.996 442.253 343.397 444.968 344.912L445.942 343.165ZM428.943 335.197C425.955 334.028 422.996 332.98 420.103 332.044L419.488 333.947C422.344 334.871 425.266 335.906 428.215 337.059L428.943 335.197ZM411.112 329.421C407.879 328.58 404.8 327.888 401.941 327.333L401.56 329.296C404.377 329.843 407.415 330.526 410.608 331.357L411.112 329.421ZM392.657 325.902C390.893 325.712 389.311 325.598 387.946 325.556L387.884 327.555C389.189 327.595 390.718 327.704 392.443 327.89L392.657 325.902ZM387.946 325.556C387.758 325.55 387.581 325.544 387.41 325.538L387.338 327.537C387.515 327.543 387.696 327.549 387.884 327.555L387.946 325.556ZM386.365 325.485C386.199 325.473 386.029 325.458 385.85 325.441L385.656 327.431C385.852 327.451 386.038 327.466 386.22 327.479L386.365 325.485ZM385.85 325.441C384.94 325.352 383.447 325.206 381.428 325.008L381.232 326.998C383.252 327.197 384.746 327.343 385.656 327.431L385.85 325.441ZM372.351 324.109C369.642 323.84 366.597 323.535 363.25 323.199L363.05 325.189C366.398 325.525 369.444 325.83 372.153 326.099L372.351 324.109ZM354.218 322.287C351.343 321.996 348.315 321.688 345.15 321.364L344.946 323.354C348.112 323.678 351.141 323.986 354.016 324.277L354.218 322.287ZM336.08 320.434C333.145 320.131 330.119 319.818 327.011 319.495L326.804 321.485C329.913 321.808 332.94 322.121 335.875 322.423L336.08 320.434ZM317.939 318.549C314.972 318.238 311.944 317.92 308.863 317.594L308.652 319.583C311.734 319.909 314.763 320.227 317.731 320.538L317.939 318.549ZM299.779 316.631C296.8 316.313 293.779 315.99 290.724 315.662L290.51 317.65C293.566 317.979 296.587 318.302 299.568 318.62L299.779 316.631ZM281.681 314.686C278.686 314.361 275.665 314.031 272.623 313.698L272.405 315.686C275.448 316.02 278.47 316.349 281.466 316.674L281.681 314.686ZM263.556 312.7C260.548 312.368 257.524 312.031 254.49 311.692L254.268 313.68C257.303 314.019 260.327 314.355 263.337 314.688L263.556 312.7ZM245.445 310.675C242.429 310.334 239.409 309.991 236.389 309.646L236.162 311.633C239.183 311.978 242.204 312.322 245.22 312.663L245.445 310.675ZM227.334 308.603C224.314 308.253 221.298 307.901 218.291 307.548L218.058 309.534C221.065 309.888 224.082 310.24 227.104 310.59L227.334 308.603ZM209.236 306.477C206.201 306.115 203.181 305.752 200.181 305.388L199.94 307.374C202.941 307.737 205.963 308.1 209 308.463L209.236 306.477ZM191.136 304.283C188.098 303.908 185.087 303.533 182.109 303.158L181.86 305.143C184.839 305.517 187.852 305.893 190.891 306.267L191.136 304.283ZM173.082 302.01C170.019 301.616 166.998 301.223 164.026 300.831L163.765 302.814C166.739 303.206 169.762 303.6 172.827 303.994L173.082 302.01ZM154.982 299.621C151.904 299.204 148.891 298.788 145.95 298.375L145.672 300.356C148.616 300.769 151.633 301.185 154.713 301.603L154.982 299.621ZM136.93 297.083C133.821 296.628 130.814 296.178 127.92 295.733L127.616 297.71C130.515 298.156 133.527 298.607 136.641 299.062L136.93 297.083ZM118.925 294.305C115.754 293.785 112.766 293.273 109.979 292.772L109.625 294.741C112.424 295.244 115.422 295.757 118.601 296.279L118.925 294.305ZM101.064 291.062C99.502 290.738 98.046 290.421 96.7021 290.11L96.2515 292.058C97.6127 292.373 99.084 292.694 100.659 293.02L101.064 291.062ZM96.7021 290.11C95.2297 289.769 93.7782 289.424 92.3478 289.075L91.8729 291.017C93.3117 291.369 94.7712 291.716 96.2515 292.058L96.7021 290.11ZM83.6954 286.834C80.7385 286.023 77.8829 285.189 75.1277 284.332L74.5339 286.242C77.3117 287.106 80.189 287.946 83.1661 288.763L83.6954 286.834ZM66.6677 281.517C63.7674 280.483 60.9977 279.42 58.3575 278.326L57.5918 280.173C60.2654 281.281 63.0667 282.357 65.9963 283.401L66.6677 281.517ZM50.2556 274.672C47.4748 273.305 44.8732 271.895 42.4489 270.442L41.4205 272.157C43.8966 273.642 46.5473 275.078 49.3732 276.467L50.2556 274.672ZM35.1116 265.504C32.6509 263.633 30.4471 261.699 28.4955 259.7L27.0645 261.097C29.0912 263.173 31.37 265.171 33.9012 267.096L35.1116 265.504ZM22.9894 252.907C21.3497 250.408 20.0447 247.818 19.0681 245.131L17.1885 245.815C18.2201 248.652 19.596 251.381 21.3173 254.004L22.9894 252.907ZM17.1033 236.66C16.9461 235.232 16.8676 233.777 16.8676 232.296H14.8676C14.8676 233.848 14.9499 235.376 15.1153 236.879L17.1033 236.66ZM16.8676 232.296C16.8676 230.833 16.9441 229.389 17.0912 227.966L15.1018 227.76C14.9477 229.251 14.8676 230.764 14.8676 232.296H16.8676ZM18.8344 219.478C19.6935 216.693 20.8083 214.007 22.1266 211.436L20.3469 210.524C18.9795 213.19 17.8193 215.984 16.9233 218.888L18.8344 219.478ZM26.6928 204.011C28.4154 201.624 30.2956 199.378 32.2753 197.29L30.8238 195.914C28.7868 198.063 26.8491 200.377 25.0711 202.841L26.6928 204.011ZM38.6781 191.33C41.0259 189.403 43.4178 187.693 45.7735 186.224L44.7152 184.527C42.2849 186.042 39.8226 187.803 37.4089 189.785L38.6781 191.33ZM53.4899 182.204C54.9131 181.616 56.2758 181.145 57.5556 180.795L57.0282 178.866C55.6579 179.24 54.216 179.74 52.7261 180.356L53.4899 182.204ZM57.5552 180.795L57.5623 180.793L57.0357 178.864L57.0286 178.866L57.5552 180.795ZM57.5765 180.789L57.5836 180.787L57.057 178.858L57.0499 178.86L57.5765 180.789ZM57.5809 180.788C57.6506 180.769 59.3392 180.313 62.2873 179.51L61.7612 177.58C58.8149 178.383 57.128 178.839 57.0597 178.857L57.5809 180.788ZM71.8011 176.902C74.6438 176.119 77.8313 175.238 81.2871 174.278L80.7518 172.351C77.2976 173.311 74.1115 174.192 71.2701 174.974L71.8011 176.902ZM90.7751 171.631C93.82 170.777 96.9909 169.885 100.25 168.963L99.7056 167.038C96.4481 167.96 93.2788 168.852 90.2353 169.705L90.7751 171.631ZM109.712 166.272C112.833 165.379 115.999 164.469 119.181 163.549L118.625 161.628C115.445 162.547 112.282 163.457 109.162 164.349L109.712 166.272ZM128.634 160.795C131.807 159.864 134.966 158.93 138.083 158L137.512 156.083C134.397 157.013 131.241 157.946 128.071 158.876L128.634 160.795ZM147.509 155.159C150.739 154.175 153.885 153.203 156.913 152.254L156.315 150.346C153.292 151.293 150.151 152.263 146.926 153.246L147.509 155.159ZM166.308 149.251C169.68 148.15 172.812 147.096 175.637 146.107L174.976 144.219C172.167 145.202 169.049 146.252 165.687 147.35L166.308 149.251ZM184.927 142.62C186.826 141.833 188.367 141.117 189.462 140.491L188.469 138.754C187.484 139.318 186.034 139.996 184.161 140.773L184.927 142.62ZM189.462 140.491C190.562 139.861 191.977 139.101 193.676 138.185L192.727 136.425C191.039 137.334 189.596 138.11 188.469 138.754L189.462 140.491ZM202.214 133.461C204.796 131.975 207.614 130.29 210.599 128.388L209.524 126.701C206.569 128.585 203.777 130.254 201.216 131.728L202.214 133.461ZM218.701 122.934C221.251 121.12 223.868 119.161 226.518 117.047L225.27 115.483C222.651 117.573 220.064 119.51 217.542 121.304L218.701 122.934ZM233.993 110.718C236.36 108.591 238.728 106.336 241.074 103.948L239.647 102.546C237.332 104.903 234.994 107.129 232.656 109.231L233.993 110.718ZM247.697 96.7511C249.788 94.3239 251.841 91.7799 253.838 89.1144L252.237 87.9154C250.269 90.5431 248.244 93.0517 246.182 95.4458L247.697 96.7511ZM259.435 81.0683C261.172 78.3727 262.846 75.5685 264.441 72.652L262.686 71.6923C261.115 74.5656 259.466 77.3286 257.754 79.985L259.435 81.0683ZM268.831 63.8852C270.161 60.9676 271.412 57.9499 272.572 54.8292L270.697 54.1328C269.554 57.2077 268.322 60.1809 267.011 63.0553L268.831 63.8852ZM275.651 45.5383C276.552 42.4616 277.364 39.2943 278.079 36.034L276.125 35.6057C275.42 38.821 274.619 41.9437 273.732 44.9764L275.651 45.5383ZM279.857 26.4004C280.333 23.2463 280.719 20.0123 281.009 16.6968L279.017 16.5225C278.731 19.7968 278.349 22.9893 277.879 26.102L279.857 26.4004ZM281.571 6.93469C281.617 5.3081 281.64 3.66326 281.64 2H279.64C279.64 3.64451 279.617 5.27048 279.572 6.8781L281.571 6.93469ZM3.57896 607.862L1.60639 608.192L1.60639 608.192L3.57896 607.862ZM57.318 528.182L58.1985 529.978L58.1985 529.978L57.318 528.182ZM405.142 484.423L405.335 486.414L405.335 486.414L405.142 484.423ZM405.743 484.349L406.022 486.329L406.022 486.329L405.743 484.349ZM486.398 397.487L488.379 397.217L488.379 397.217L486.398 397.487ZM387.915 326.555L387.854 328.554L387.854 328.554L387.915 326.555ZM385.753 326.436L385.559 328.427L385.559 328.427L385.753 326.436ZM96.4768 291.084L96.0261 293.033L96.0261 293.033L96.4768 291.084ZM57.2919 179.83L56.7654 177.901L56.7645 177.901L57.2919 179.83ZM57.3203 179.823L56.799 177.892L56.7937 177.893L57.3203 179.823ZM188.966 139.622L189.959 141.359L189.959 141.359L188.966 139.622ZM282.055 0.585786C281.274 -0.195262 280.007 -0.195262 279.226 0.585786L266.498 13.3137C265.717 14.0948 265.717 15.3611 266.498 16.1421C267.279 16.9232 268.546 16.9232 269.327 16.1421L280.64 4.82843L291.954 16.1421C292.735 16.9232 294.001 16.9232 294.782 16.1421C295.564 15.3611 295.564 14.0948 294.782 13.3137L282.055 0.585786ZM145.98 687.021C144.479 686.802 142.919 686.559 141.307 686.293L140.655 690.24C142.291 690.51 143.875 690.756 145.402 690.979L145.98 687.021ZM131.964 684.593C128.971 684 125.859 683.34 122.655 682.612L121.769 686.513C125.009 687.249 128.157 687.917 131.187 688.517L131.964 684.593ZM113.421 680.383C110.409 679.613 107.344 678.788 104.242 677.907L103.149 681.755C106.285 682.646 109.386 683.48 112.43 684.258L113.421 680.383ZM95.126 675.18C92.1284 674.238 89.1158 673.244 86.1044 672.199L84.7925 675.977C87.8428 677.036 90.8929 678.042 93.9263 678.996L95.126 675.18ZM77.1798 668.941C74.2239 667.807 71.2853 666.622 68.3797 665.386L66.814 669.067C69.7661 670.323 72.7491 671.525 75.747 672.676L77.1798 668.941ZM59.7269 661.501C56.8517 660.137 54.0277 658.72 51.2711 657.25L49.3887 660.78C52.2045 662.281 55.0848 663.726 58.0127 665.115L59.7269 661.501ZM43.0517 652.577C40.3186 650.917 37.6798 649.2 35.1536 647.423L32.8525 650.695C35.4581 652.527 38.1725 654.294 40.9757 655.996L43.0517 652.577ZM27.6947 641.719C25.2443 639.673 22.9495 637.56 20.8321 635.381L17.9632 638.168C20.1863 640.457 22.5843 642.663 25.1308 644.79L27.6947 641.719ZM14.7904 628.318C12.9121 625.788 11.2742 623.182 9.90265 620.499L6.34106 622.32C7.82223 625.218 9.58054 628.011 11.5791 630.702L14.7904 628.318ZM6.54739 611.987C6.13702 610.524 5.8038 609.039 5.55153 607.532L1.60639 608.192C1.88277 609.844 2.24757 611.469 2.69604 613.068L6.54739 611.987ZM5.55153 607.532C5.3013 606.037 5.08292 604.576 4.89525 603.149L0.929383 603.67C1.12334 605.145 1.34869 606.652 1.60639 608.192L5.55153 607.532ZM4.09894 594.384C3.95349 591.294 3.97083 588.386 4.135 585.646L0.142162 585.407C-0.0310996 588.299 -0.0483293 591.35 0.103364 594.572L4.09894 594.384ZM5.21714 577.048C5.81088 574.058 6.60824 571.305 7.57902 568.761L3.84186 567.335C2.78797 570.097 1.92964 573.067 1.29377 576.269L5.21714 577.048ZM11.3692 561.091C12.9138 558.604 14.6603 556.349 16.5683 554.285L13.6313 551.57C11.5618 553.808 9.65823 556.264 7.97115 558.981L11.3692 561.091ZM22.9388 548.472C25.2241 546.693 27.6407 545.076 30.1448 543.577L28.0899 540.145C25.4727 541.712 22.9176 543.419 20.4821 545.315L22.9388 548.472ZM37.8827 539.384C40.5466 538.061 43.2419 536.819 45.9275 535.607L44.2819 531.961C41.5811 533.18 38.8335 534.445 36.1038 535.801L37.8827 539.384ZM54.1114 531.914C55.4952 531.277 56.8609 530.633 58.1985 529.978L56.4376 526.386C55.137 527.024 53.8017 527.653 52.4375 528.281L54.1114 531.914ZM58.1985 529.978C59.0301 529.57 60.3183 529.098 62.0929 528.576L60.964 524.739C59.1139 525.283 57.5721 525.83 56.4376 526.386L58.1985 529.978ZM70.959 526.416C73.6508 525.845 76.6806 525.254 80.0184 524.644L79.2994 520.709C75.9342 521.324 72.8662 521.923 70.1289 522.503L70.959 526.416ZM89.0784 523.067C91.9658 522.587 95.011 522.097 98.2004 521.6L97.5845 517.648C94.3832 518.147 91.3242 518.638 88.4214 519.122L89.0784 523.067ZM107.249 520.227C110.187 519.791 113.222 519.351 116.343 518.907L115.78 514.947C112.651 515.392 109.609 515.833 106.662 516.27L107.249 520.227ZM125.498 517.627C128.504 517.214 131.577 516.797 134.71 516.379L134.18 512.414C131.043 512.833 127.965 513.25 124.953 513.664L125.498 517.627ZM143.804 515.179C146.81 514.787 149.863 514.394 152.956 514L152.45 510.032C149.353 510.427 146.297 510.82 143.287 511.213L143.804 515.179ZM162.169 512.836C165.177 512.46 168.217 512.084 171.284 511.707L170.796 507.737C167.726 508.114 164.684 508.491 161.673 508.867L162.169 512.836ZM180.46 510.588C183.499 510.221 186.561 509.853 189.64 509.486L189.167 505.514C186.085 505.882 183.022 506.249 179.98 506.617L180.46 510.588ZM198.794 508.402C201.845 508.044 204.91 507.685 207.984 507.328L207.522 503.355C204.446 503.712 201.38 504.071 198.327 504.43L198.794 508.402ZM217.146 506.27C220.202 505.919 223.263 505.57 226.326 505.222L225.875 501.247C222.81 501.595 219.747 501.945 216.689 502.296L217.146 506.27ZM235.499 504.185C238.564 503.84 241.627 503.497 244.685 503.157L244.242 499.181C241.183 499.522 238.119 499.865 235.052 500.21L235.499 504.185ZM253.85 502.141C256.926 501.801 259.993 501.464 263.046 501.13L262.61 497.154C259.557 497.488 256.489 497.825 253.412 498.165L253.85 502.141ZM272.227 500.13C275.302 499.796 278.359 499.465 281.393 499.139L280.965 495.162C277.929 495.488 274.871 495.819 271.795 496.153L272.227 500.13ZM290.605 498.15C293.686 497.821 296.738 497.496 299.758 497.176L299.336 493.198C296.315 493.519 293.262 493.844 290.18 494.173L290.605 498.15ZM308.959 496.203C312.073 495.876 315.145 495.553 318.169 495.237L317.753 491.259C314.728 491.575 311.655 491.897 308.54 492.225L308.959 496.203ZM327.309 494.284C330.438 493.959 333.507 493.641 336.509 493.332L336.098 489.353C333.095 489.663 330.025 489.98 326.895 490.306L327.309 494.284ZM345.742 492.382C348.897 492.059 351.963 491.745 354.93 491.443L354.525 487.464C351.557 487.766 348.49 488.079 345.334 488.403L345.742 492.382ZM364.089 490.514C367.294 490.19 370.353 489.882 373.249 489.591L372.85 485.611C369.952 485.902 366.893 486.21 363.686 486.534L364.089 490.514ZM382.46 488.669C385.892 488.327 388.993 488.019 391.728 487.749L391.334 483.768C388.599 484.039 385.496 484.346 382.063 484.689L382.46 488.669ZM400.846 486.851C403.283 486.613 404.818 486.464 405.335 486.414L404.949 482.433C404.431 482.483 402.895 482.632 400.456 482.87L400.846 486.851ZM405.335 486.414C405.398 486.408 405.453 486.402 405.504 486.397L405.082 482.419C405.048 482.423 405.006 482.427 404.949 482.433L405.335 486.414ZM405.874 486.35C405.919 486.344 405.963 486.338 406.022 486.329L405.464 482.368C405.405 482.377 405.352 482.384 405.313 482.39L405.874 486.35ZM406.022 486.329C407.493 486.122 409.069 485.836 410.733 485.473L409.88 481.565C408.302 481.909 406.824 482.177 405.464 482.368L406.022 486.329ZM419.909 482.951C422.751 482.025 425.73 480.928 428.788 479.661L427.257 475.966C424.292 477.194 421.41 478.254 418.669 479.148L419.909 482.951ZM437.394 475.729C440.154 474.348 442.935 472.836 445.701 471.192L443.657 467.754C440.978 469.346 438.281 470.812 435.604 472.152L437.394 475.729ZM453.648 466.051C456.214 464.246 458.733 462.32 461.17 460.274L458.598 457.21C456.254 459.179 453.826 461.036 451.346 462.78L453.648 466.051ZM468.154 453.823C470.376 451.558 472.486 449.172 474.451 446.665L471.303 444.198C469.436 446.58 467.424 448.855 465.298 451.023L468.154 453.823ZM479.871 438.786C481.502 436.052 482.955 433.197 484.196 430.222L480.504 428.682C479.34 431.472 477.974 434.157 476.436 436.737L479.871 438.786ZM487.211 421.096C487.965 418.038 488.495 414.874 488.773 411.606L484.788 411.267C484.527 414.323 484.032 417.28 483.327 420.138L487.211 421.096ZM488.861 401.997C488.759 400.424 488.599 398.831 488.379 397.217L484.416 397.756C484.623 399.278 484.773 400.779 484.869 402.257L488.861 401.997ZM488.379 397.217C488.16 395.605 487.885 394.024 487.556 392.475L483.643 393.305C483.951 394.758 484.21 396.241 484.416 397.756L488.379 397.217ZM484.852 383.243C483.702 380.198 482.336 377.296 480.784 374.533L477.296 376.491C478.753 379.086 480.033 381.806 481.11 384.656L484.852 383.243ZM475.503 366.522C473.561 363.977 471.458 361.573 469.225 359.303L466.373 362.108C468.497 364.267 470.49 366.545 472.324 368.949L475.503 366.522ZM462.169 352.888C459.708 350.88 457.148 348.998 454.522 347.238L452.295 350.561C454.825 352.257 457.283 354.064 459.639 355.987L462.169 352.888ZM446.429 342.292C443.647 340.74 440.826 339.306 437.999 337.985L436.305 341.609C439.052 342.893 441.788 344.283 444.481 345.785L446.429 342.292ZM429.307 334.265C426.3 333.089 423.322 332.034 420.411 331.093L419.18 334.898C422.018 335.817 424.922 336.845 427.85 337.991L429.307 334.265ZM411.364 328.453C408.11 327.607 405.011 326.91 402.132 326.351L401.37 330.278C404.166 330.821 407.184 331.499 410.356 332.324L411.364 328.453ZM392.764 324.907C390.98 324.715 389.372 324.599 387.977 324.556L387.854 328.554C389.127 328.594 390.631 328.701 392.336 328.884L392.764 324.907ZM387.977 324.556C387.789 324.55 387.614 324.545 387.445 324.539L387.303 328.536C387.482 328.543 387.666 328.549 387.854 328.554L387.977 324.556ZM386.437 324.487C386.279 324.476 386.118 324.462 385.947 324.446L385.559 328.427C385.763 328.447 385.958 328.463 386.148 328.477L386.437 324.487ZM385.947 324.446C385.038 324.357 383.545 324.211 381.526 324.012L381.134 327.993C383.155 328.192 384.649 328.338 385.559 328.427L385.947 324.446ZM372.45 323.114C369.742 322.845 366.696 322.54 363.35 322.204L362.95 326.184C366.298 326.52 369.344 326.825 372.054 327.095L372.45 323.114ZM354.318 321.293C351.444 321.001 348.417 320.693 345.251 320.37L344.845 324.349C348.011 324.673 351.04 324.981 353.915 325.272L354.318 321.293ZM336.182 319.439C333.248 319.137 330.222 318.824 327.114 318.501L326.701 322.479C329.81 322.802 332.837 323.115 335.772 323.418L336.182 319.439ZM318.044 317.555C315.077 317.244 312.049 316.925 308.968 316.6L308.547 320.578C311.63 320.903 314.659 321.222 317.627 321.533L318.044 317.555ZM299.885 315.636C296.906 315.319 293.886 314.996 290.831 314.668L290.403 318.645C293.459 318.973 296.481 319.296 299.462 319.614L299.885 315.636ZM281.789 313.691C278.795 313.367 275.774 313.037 272.732 312.704L272.296 316.68C275.34 317.014 278.362 317.343 281.358 317.668L281.789 313.691ZM263.666 311.706C260.658 311.374 257.635 311.038 254.601 310.698L254.157 314.674C257.192 315.013 260.217 315.349 263.227 315.682L263.666 311.706ZM245.557 309.682C242.542 309.341 239.522 308.998 236.503 308.652L236.048 312.626C239.07 312.972 242.091 313.315 245.108 313.656L245.557 309.682ZM227.449 307.61C224.429 307.26 221.414 306.908 218.408 306.555L217.941 310.528C220.949 310.881 223.967 311.233 226.989 311.583L227.449 307.61ZM209.355 305.484C206.32 305.122 203.3 304.759 200.301 304.395L199.82 308.366C202.822 308.73 205.844 309.093 208.881 309.455L209.355 305.484ZM191.258 303.29C188.221 302.915 185.211 302.541 182.234 302.166L181.735 306.135C184.715 306.51 187.729 306.885 190.768 307.26L191.258 303.29ZM173.21 301.018C170.148 300.625 167.128 300.231 164.157 299.84L163.634 303.805C166.609 304.198 169.633 304.591 172.7 304.986L173.21 301.018ZM155.117 298.63C152.04 298.213 149.029 297.797 146.09 297.385L145.533 301.346C148.479 301.759 151.497 302.176 154.579 302.594L155.117 298.63ZM137.075 296.094C133.968 295.639 130.963 295.189 128.072 294.744L127.464 298.698C130.366 299.144 133.381 299.596 136.496 300.051L137.075 296.094ZM119.087 293.319C115.921 292.799 112.937 292.288 110.156 291.788L109.448 295.725C112.252 296.229 115.256 296.743 118.439 297.266L119.087 293.319ZM101.267 290.082C99.711 289.76 98.2626 289.444 96.9274 289.136L96.0261 293.033C97.3961 293.35 98.875 293.672 100.456 293.999L101.267 290.082ZM96.9274 289.136C95.4589 288.796 94.0115 288.452 92.5852 288.103L91.6355 291.989C93.0784 292.342 94.5419 292.689 96.0261 293.033L96.9274 289.136ZM83.9601 285.87C81.0133 285.061 78.1684 284.23 75.4247 283.377L74.2369 287.197C77.0262 288.064 79.9142 288.907 82.9014 289.727L83.9601 285.87ZM67.0034 280.575C64.1178 279.547 61.3639 278.489 58.7404 277.402L57.2089 281.097C59.8992 282.212 62.7164 283.294 65.6607 284.343L67.0034 280.575ZM50.6969 273.775C47.9386 272.419 45.3616 271.022 42.9631 269.584L40.9063 273.015C43.4083 274.515 46.0835 275.964 48.932 277.365L50.6969 273.775ZM35.7169 264.708C33.2914 262.864 31.125 260.962 29.211 259.001L26.349 261.796C28.4132 263.91 30.7295 265.941 33.2959 267.892L35.7169 264.708ZM23.8254 252.358C22.2266 249.922 20.9571 247.4 20.008 244.79L16.2487 246.156C17.3077 249.069 18.7191 251.868 20.4813 254.553L23.8254 252.358ZM18.0973 236.551C17.9443 235.16 17.8676 233.742 17.8676 232.296H13.8676C13.8676 233.884 13.9518 235.448 14.1213 236.988L18.0973 236.551ZM17.8676 232.296C17.8676 230.868 17.9422 229.459 18.0859 228.068L14.107 227.657C13.9496 229.182 13.8676 230.729 13.8676 232.296H17.8676ZM19.79 219.773C20.6307 217.047 21.7226 214.416 23.0164 211.893L19.4571 210.068C18.0652 212.782 16.8821 215.629 15.9677 218.594L19.79 219.773ZM27.5036 204.596C29.1985 202.248 31.05 200.036 33.0011 197.978L30.0981 195.226C28.0325 197.405 26.0659 199.754 24.2603 202.255L27.5036 204.596ZM39.3127 192.103C41.6275 190.203 43.9843 188.518 46.3027 187.072L44.186 183.678C41.7185 185.217 39.221 187.003 36.7743 189.012L39.3127 192.103ZM53.8718 183.128C55.2617 182.554 56.5848 182.097 57.8194 181.76L56.7645 177.901C55.3489 178.288 53.8674 178.802 52.3443 179.431L53.8718 183.128ZM57.8185 181.76L57.8256 181.758L56.7724 177.899L56.7654 177.901L57.8185 181.76ZM57.8397 181.754L57.8468 181.752L56.7937 177.893L56.7866 177.895L57.8397 181.754ZM57.8415 181.753C57.912 181.734 59.6013 181.278 62.5503 180.474L61.4982 176.615C58.5528 177.418 56.8666 177.873 56.799 177.892L57.8415 181.753ZM72.0666 177.866C74.91 177.083 78.0982 176.202 81.5548 175.242L80.4841 171.388C77.0307 172.347 73.8454 173.228 71.0046 174.01L72.0666 177.866ZM91.0449 172.594C94.0907 171.74 97.2623 170.847 100.522 169.925L99.4333 166.076C96.1767 166.998 93.0082 167.889 89.9654 168.742L91.0449 172.594ZM109.987 167.233C113.109 166.341 116.276 165.43 119.459 164.509L118.347 160.667C115.169 161.587 112.006 162.496 108.887 163.387L109.987 167.233ZM128.916 161.754C132.089 160.823 135.25 159.889 138.369 158.958L137.226 155.125C134.113 156.054 130.958 156.987 127.79 157.916L128.916 161.754ZM147.801 156.115C151.032 155.13 154.181 154.159 157.212 153.208L156.015 149.391C152.996 150.338 149.857 151.307 146.635 152.289L147.801 156.115ZM166.619 150.202C169.995 149.099 173.134 148.042 175.967 147.05L174.645 143.275C171.845 144.256 168.733 145.303 165.376 146.4L166.619 150.202ZM185.31 143.544C187.222 142.751 188.809 142.016 189.959 141.359L187.973 137.886C187.042 138.418 185.638 139.077 183.777 139.849L185.31 143.544ZM189.959 141.359C191.045 140.737 192.447 139.984 194.15 139.066L192.253 135.544C190.57 136.451 189.114 137.234 187.973 137.886L189.959 141.359ZM202.713 134.328C205.305 132.836 208.136 131.143 211.137 129.231L208.987 125.858C206.046 127.732 203.267 129.394 200.718 130.861L202.713 134.328ZM219.281 123.749C221.845 121.925 224.476 119.955 227.141 117.829L224.647 114.702C222.043 116.779 219.471 118.705 216.962 120.489L219.281 123.749ZM234.661 111.462C237.043 109.321 239.426 107.052 241.787 104.648L238.933 101.846C236.634 104.187 234.311 106.399 231.987 108.487L234.661 111.462ZM248.455 97.4037C250.56 94.96 252.627 92.3983 254.638 89.7139L251.437 87.3159C249.482 89.9247 247.473 92.4156 245.425 94.7931L248.455 97.4037ZM260.276 81.61C262.025 78.8947 263.711 76.0699 265.318 73.1319L261.809 71.2124C260.249 74.0641 258.612 76.8065 256.913 79.4433L260.276 81.61ZM269.741 64.3002C271.081 61.3609 272.341 58.321 273.509 55.1774L269.759 53.7845C268.626 56.8366 267.402 59.7875 266.101 62.6403L269.741 64.3002ZM276.611 45.8192C277.518 42.7205 278.336 39.5309 279.056 36.2482L275.148 35.3916C274.448 38.5844 273.653 41.6848 272.772 44.6955L276.611 45.8192ZM280.846 26.5496C281.325 23.3747 281.714 20.1201 282.006 16.7839L278.021 16.4354C277.736 19.6891 277.357 22.8609 276.891 25.9528L280.846 26.5496ZM282.571 6.96299C282.617 5.32691 282.64 3.67264 282.64 2H278.64C278.64 3.63514 278.617 5.25167 278.572 6.8498L282.571 6.96299Z" fill="url(#paint0_radial_4_817)"/>
<path d="M3.57896 607.862L2.59267 608.027L2.59267 608.027L3.57896 607.862ZM57.318 528.182L57.7583 529.08L57.7583 529.08L57.318 528.182ZM405.142 484.423L405.239 485.419L405.239 485.419L405.142 484.423ZM405.743 484.349L405.883 485.339L405.883 485.339L405.743 484.349ZM486.398 397.487L487.388 397.352L487.388 397.352L486.398 397.487ZM387.915 326.555L387.884 327.555L387.884 327.555L387.915 326.555ZM385.753 326.436L385.656 327.431L385.656 327.431L385.753 326.436ZM96.4768 291.084L96.2515 292.058L96.2515 292.058L96.4768 291.084ZM57.2919 179.83L57.0286 178.866L57.0282 178.866L57.2919 179.83ZM57.3203 179.823L57.0597 178.857L57.057 178.858L57.3203 179.823ZM188.966 139.622L189.462 140.491L189.462 140.491L188.966 139.622ZM281.347 1.29289C280.957 0.902369 280.324 0.902369 279.933 1.29289L273.569 7.65685C273.179 8.04738 273.179 8.68054 273.569 9.07107C273.96 9.46159 274.593 9.46159 274.983 9.07107L280.64 3.41421L286.297 9.07107C286.688 9.46159 287.321 9.46159 287.711 9.07107C288.102 8.68054 288.102 8.04738 287.711 7.65685L281.347 1.29289ZM145.835 688.01C144.328 687.79 142.762 687.547 141.144 687.28L140.818 689.253C142.448 689.522 144.026 689.768 145.547 689.99L145.835 688.01ZM131.77 685.574C128.768 684.979 125.647 684.317 122.434 683.587L121.991 685.537C125.222 686.272 128.361 686.938 131.381 687.536L131.77 685.574ZM113.173 681.352C110.153 680.58 107.079 679.753 103.969 678.869L103.422 680.793C106.55 681.681 109.641 682.514 112.678 683.289L113.173 681.352ZM94.8261 676.134C91.8195 675.189 88.7975 674.192 85.7764 673.143L85.1205 675.033C88.1611 676.088 91.2017 677.091 94.2263 678.042L94.8261 676.134ZM76.8216 669.875C73.8552 668.737 70.9055 667.547 67.9882 666.306L67.2054 668.147C70.1459 669.398 73.1178 670.596 76.1052 671.742L76.8216 669.875ZM59.2983 662.404C56.41 661.034 53.5719 659.611 50.8005 658.132L49.8593 659.897C52.6603 661.391 55.5265 662.829 58.4413 664.211L59.2983 662.404ZM42.5327 653.432C39.7821 651.762 37.1244 650.031 34.5783 648.241L33.4278 649.877C36.0135 651.695 38.709 653.45 41.4947 655.141L42.5327 653.432ZM27.0538 642.487C24.5793 640.421 22.2587 638.284 20.1149 636.078L18.6805 637.472C20.8771 639.733 23.2493 641.916 25.7718 644.022L27.0538 642.487ZM13.9876 628.914C12.0792 626.344 10.4112 623.691 9.01225 620.955L7.23146 621.865C8.68521 624.709 10.4134 627.455 12.3819 630.106L13.9876 628.914ZM5.58455 612.258C5.16466 610.761 4.82354 609.241 4.56524 607.697L2.59267 608.027C2.86303 609.643 3.21993 611.233 3.65888 612.798L5.58455 612.258ZM4.56524 607.697C4.31315 606.191 4.09302 604.718 3.90379 603.279L1.92085 603.54C2.11324 605.003 2.33685 606.498 2.59267 608.027L4.56524 607.697ZM3.10004 594.431C2.95303 591.308 2.97035 588.364 3.13679 585.586L1.14037 585.467C0.969384 588.321 0.952125 591.336 1.10226 594.525L3.10004 594.431ZM4.2363 576.853C4.84057 573.81 5.65317 571.003 6.64473 568.405L4.77615 567.692C3.74304 570.399 2.89995 573.315 2.27461 576.463L4.2363 576.853ZM10.5197 560.564C12.0999 558.019 13.8857 555.714 15.834 553.606L14.3656 552.249C12.3365 554.443 10.4721 556.849 8.82066 559.509L10.5197 560.564ZM22.3247 547.682C24.6475 545.875 27.0987 544.235 29.6311 542.719L28.6036 541.003C26.0147 542.553 23.4942 544.238 21.0963 546.104L22.3247 547.682ZM37.438 538.488C40.1183 537.157 42.8267 535.909 45.5161 534.695L44.6933 532.873C41.9963 534.09 39.2618 535.349 36.5485 536.696L37.438 538.488ZM53.6929 531.006C55.0718 530.371 56.4299 529.731 57.7583 529.08L56.8778 527.284C55.568 527.926 54.2251 528.559 52.856 529.19L53.6929 531.006ZM57.7583 529.08C58.6656 528.635 60.0172 528.145 61.8107 527.617L61.2463 525.698C59.415 526.237 57.9366 526.765 56.8778 527.284L57.7583 529.08ZM70.7514 525.438C73.4547 524.865 76.494 524.271 79.8386 523.66L79.4791 521.693C76.1208 522.306 73.0624 522.903 70.3364 523.482L70.7514 525.438ZM88.9141 522.081C91.8054 521.6 94.854 521.11 98.0464 520.612L97.7385 518.636C94.5401 519.134 91.4846 519.625 88.5856 520.108L88.9141 522.081ZM107.102 519.237C110.043 518.802 113.079 518.361 116.203 517.917L115.921 515.937C112.794 516.382 109.754 516.823 106.809 517.259L107.102 519.237ZM125.362 516.636C128.369 516.223 131.444 515.806 134.578 515.388L134.313 513.405C131.176 513.824 128.1 514.241 125.089 514.655L125.362 516.636ZM143.675 514.188C146.682 513.796 149.735 513.402 152.83 513.008L152.577 511.024C149.481 511.418 146.426 511.812 143.416 512.204L143.675 514.188ZM162.045 511.844C165.054 511.468 168.094 511.091 171.162 510.714L170.918 508.729C167.849 509.106 164.807 509.483 161.797 509.86L162.045 511.844ZM180.34 509.595C183.38 509.228 186.442 508.86 189.522 508.493L189.285 506.507C186.204 506.874 183.141 507.242 180.1 507.61L180.34 509.595ZM198.677 507.409C201.729 507.05 204.794 506.692 207.868 506.335L207.637 504.348C204.562 504.706 201.496 505.064 198.444 505.423L198.677 507.409ZM217.032 505.277C220.088 504.926 223.15 504.576 226.213 504.228L225.988 502.241C222.923 502.589 219.861 502.939 216.803 503.29L217.032 505.277ZM235.388 503.191C238.453 502.846 241.516 502.504 244.574 502.163L244.352 500.175C241.294 500.516 238.23 500.859 235.164 501.204L235.388 503.191ZM253.741 501.147C256.817 500.807 259.884 500.47 262.937 500.136L262.719 498.148C259.666 498.482 256.598 498.819 253.521 499.159L253.741 501.147ZM272.119 499.135C275.194 498.802 278.251 498.471 281.286 498.144L281.072 496.156C278.037 496.483 274.979 496.813 271.903 497.147L272.119 499.135ZM290.499 497.156C293.58 496.827 296.633 496.502 299.652 496.182L299.441 494.193C296.421 494.513 293.368 494.838 290.287 495.167L290.499 497.156ZM308.855 495.209C311.968 494.881 315.04 494.559 318.065 494.242L317.857 492.253C314.832 492.57 311.759 492.892 308.645 493.22L308.855 495.209ZM327.205 493.29C330.335 492.964 333.404 492.647 336.406 492.337L336.201 490.347C333.198 490.657 330.128 490.975 326.999 491.3L327.205 493.29ZM345.64 491.387C348.796 491.064 351.862 490.751 354.829 490.449L354.626 488.459C351.659 488.761 348.592 489.074 345.436 489.398L345.64 491.387ZM363.988 489.519C367.194 489.195 370.252 488.887 373.15 488.596L372.95 486.606C370.052 486.897 366.993 487.205 363.787 487.529L363.988 489.519ZM382.36 487.674C385.793 487.332 388.895 487.024 391.629 486.754L391.433 484.763C388.697 485.034 385.595 485.341 382.162 485.684L382.36 487.674ZM400.748 485.856C403.186 485.618 404.721 485.469 405.239 485.419L405.046 483.428C404.528 483.478 402.992 483.627 400.553 483.866L400.748 485.856ZM405.239 485.419C405.3 485.413 405.352 485.407 405.398 485.402L405.188 483.414C405.149 483.418 405.104 483.422 405.046 483.428L405.239 485.419ZM405.733 485.36C405.777 485.354 405.824 485.347 405.883 485.339L405.604 483.359C405.544 483.367 405.494 483.374 405.453 483.38L405.733 485.36ZM405.883 485.339C407.326 485.136 408.877 484.854 410.519 484.496L410.093 482.542C408.494 482.891 406.991 483.163 405.604 483.359L405.883 485.339ZM419.599 482.001C422.416 481.082 425.37 479.994 428.405 478.737L427.64 476.89C424.652 478.127 421.745 479.197 418.979 480.099L419.599 482.001ZM436.947 474.835C439.686 473.464 442.446 471.963 445.19 470.333L444.168 468.613C441.467 470.218 438.749 471.696 436.052 473.046L436.947 474.835ZM453.073 465.234C455.617 463.443 458.113 461.535 460.527 459.508L459.241 457.976C456.873 459.964 454.423 461.838 451.922 463.598L453.073 465.234ZM467.44 453.123C469.638 450.882 471.724 448.524 473.664 446.048L472.09 444.815C470.198 447.228 468.162 449.531 466.012 451.723L467.44 453.123ZM479.012 438.274C480.62 435.578 482.051 432.766 483.273 429.837L481.427 429.067C480.244 431.903 478.856 434.631 477.295 437.249L479.012 438.274ZM486.24 420.856C486.981 417.848 487.503 414.737 487.777 411.521L485.784 411.352C485.519 414.461 485.015 417.47 484.298 420.378L486.24 420.856ZM487.863 402.062C487.762 400.513 487.605 398.943 487.388 397.352L485.407 397.621C485.617 399.166 485.769 400.69 485.867 402.192L487.863 402.062ZM487.388 397.352C487.173 395.764 486.901 394.208 486.578 392.682L484.621 393.097C484.935 394.574 485.197 396.082 485.407 397.621L487.388 397.352ZM483.917 383.596C482.785 380.6 481.44 377.744 479.912 375.022L478.168 376.001C479.649 378.638 480.951 381.404 482.046 384.303L483.917 383.596ZM474.709 367.129C472.793 364.619 470.718 362.246 468.512 360.004L467.086 361.407C469.237 363.593 471.258 365.903 473.119 368.342L474.709 367.129ZM461.536 353.663C459.101 351.676 456.567 349.813 453.965 348.069L452.852 349.73C455.406 351.442 457.889 353.268 460.272 355.212L461.536 353.663ZM445.942 343.165C443.182 341.626 440.383 340.203 437.575 338.891L436.729 340.703C439.496 341.996 442.253 343.397 444.968 344.912L445.942 343.165ZM428.943 335.197C425.955 334.028 422.996 332.98 420.103 332.044L419.488 333.947C422.344 334.871 425.266 335.906 428.215 337.059L428.943 335.197ZM411.112 329.421C407.879 328.58 404.8 327.888 401.941 327.333L401.56 329.296C404.377 329.843 407.415 330.526 410.608 331.357L411.112 329.421ZM392.657 325.902C390.893 325.712 389.311 325.598 387.946 325.556L387.884 327.555C389.189 327.595 390.718 327.704 392.443 327.89L392.657 325.902ZM387.946 325.556C387.758 325.55 387.581 325.544 387.41 325.538L387.338 327.537C387.515 327.543 387.696 327.549 387.884 327.555L387.946 325.556ZM386.365 325.485C386.199 325.473 386.029 325.458 385.85 325.441L385.656 327.431C385.852 327.451 386.038 327.466 386.22 327.479L386.365 325.485ZM385.85 325.441C384.94 325.352 383.447 325.206 381.428 325.008L381.232 326.998C383.252 327.197 384.746 327.343 385.656 327.431L385.85 325.441ZM372.351 324.109C369.642 323.84 366.597 323.535 363.25 323.199L363.05 325.189C366.398 325.525 369.444 325.83 372.153 326.099L372.351 324.109ZM354.218 322.287C351.343 321.996 348.315 321.688 345.15 321.364L344.946 323.354C348.112 323.678 351.141 323.986 354.016 324.277L354.218 322.287ZM336.08 320.434C333.145 320.131 330.119 319.818 327.011 319.495L326.804 321.485C329.913 321.808 332.94 322.121 335.875 322.423L336.08 320.434ZM317.939 318.549C314.972 318.238 311.944 317.92 308.863 317.594L308.652 319.583C311.734 319.909 314.763 320.227 317.731 320.538L317.939 318.549ZM299.779 316.631C296.8 316.313 293.779 315.99 290.724 315.662L290.51 317.65C293.566 317.979 296.587 318.302 299.568 318.62L299.779 316.631ZM281.681 314.686C278.686 314.361 275.665 314.031 272.623 313.698L272.405 315.686C275.448 316.02 278.47 316.349 281.466 316.674L281.681 314.686ZM263.556 312.7C260.548 312.368 257.524 312.031 254.49 311.692L254.268 313.68C257.303 314.019 260.327 314.355 263.337 314.688L263.556 312.7ZM245.445 310.675C242.429 310.334 239.409 309.991 236.389 309.646L236.162 311.633C239.183 311.978 242.204 312.322 245.22 312.663L245.445 310.675ZM227.334 308.603C224.314 308.253 221.298 307.901 218.291 307.548L218.058 309.534C221.065 309.888 224.082 310.24 227.104 310.59L227.334 308.603ZM209.236 306.477C206.201 306.115 203.181 305.752 200.181 305.388L199.94 307.374C202.941 307.737 205.963 308.1 209 308.463L209.236 306.477ZM191.136 304.283C188.098 303.908 185.087 303.533 182.109 303.158L181.86 305.143C184.839 305.517 187.852 305.893 190.891 306.267L191.136 304.283ZM173.082 302.01C170.019 301.616 166.998 301.223 164.026 300.831L163.765 302.814C166.739 303.206 169.762 303.6 172.827 303.994L173.082 302.01ZM154.982 299.621C151.904 299.204 148.891 298.788 145.95 298.375L145.672 300.356C148.616 300.769 151.633 301.185 154.713 301.603L154.982 299.621ZM136.93 297.083C133.821 296.628 130.814 296.178 127.92 295.733L127.616 297.71C130.515 298.156 133.527 298.607 136.641 299.062L136.93 297.083ZM118.925 294.305C115.754 293.785 112.766 293.273 109.979 292.772L109.625 294.741C112.424 295.244 115.422 295.757 118.601 296.279L118.925 294.305ZM101.064 291.062C99.502 290.738 98.046 290.421 96.7021 290.11L96.2515 292.058C97.6127 292.373 99.084 292.694 100.659 293.02L101.064 291.062ZM96.7021 290.11C95.2297 289.769 93.7782 289.424 92.3478 289.075L91.8729 291.017C93.3117 291.369 94.7712 291.716 96.2515 292.058L96.7021 290.11ZM83.6954 286.834C80.7385 286.023 77.8829 285.189 75.1277 284.332L74.5339 286.242C77.3117 287.106 80.189 287.946 83.1661 288.763L83.6954 286.834ZM66.6677 281.517C63.7674 280.483 60.9977 279.42 58.3575 278.326L57.5918 280.173C60.2654 281.281 63.0667 282.357 65.9963 283.401L66.6677 281.517ZM50.2556 274.672C47.4748 273.305 44.8732 271.895 42.4489 270.442L41.4205 272.157C43.8966 273.642 46.5473 275.078 49.3732 276.467L50.2556 274.672ZM35.1116 265.504C32.6509 263.633 30.4471 261.699 28.4955 259.7L27.0645 261.097C29.0912 263.173 31.37 265.171 33.9012 267.096L35.1116 265.504ZM22.9894 252.907C21.3497 250.408 20.0447 247.818 19.0681 245.131L17.1885 245.815C18.2201 248.652 19.596 251.381 21.3173 254.004L22.9894 252.907ZM17.1033 236.66C16.9461 235.232 16.8676 233.777 16.8676 232.296H14.8676C14.8676 233.848 14.9499 235.376 15.1153 236.879L17.1033 236.66ZM16.8676 232.296C16.8676 230.833 16.9441 229.389 17.0912 227.966L15.1018 227.76C14.9477 229.251 14.8676 230.764 14.8676 232.296H16.8676ZM18.8344 219.478C19.6935 216.693 20.8083 214.007 22.1266 211.436L20.3469 210.524C18.9795 213.19 17.8193 215.984 16.9233 218.888L18.8344 219.478ZM26.6928 204.011C28.4154 201.624 30.2956 199.378 32.2753 197.29L30.8238 195.914C28.7868 198.063 26.8491 200.377 25.0711 202.841L26.6928 204.011ZM38.6781 191.33C41.0259 189.403 43.4178 187.693 45.7735 186.224L44.7152 184.527C42.2849 186.042 39.8226 187.803 37.4089 189.785L38.6781 191.33ZM53.4899 182.204C54.9131 181.616 56.2758 181.145 57.5556 180.795L57.0282 178.866C55.6579 179.24 54.216 179.74 52.7261 180.356L53.4899 182.204ZM57.5552 180.795L57.5623 180.793L57.0357 178.864L57.0286 178.866L57.5552 180.795ZM57.5765 180.789L57.5836 180.787L57.057 178.858L57.0499 178.86L57.5765 180.789ZM57.5809 180.788C57.6506 180.769 59.3392 180.313 62.2873 179.51L61.7612 177.58C58.8149 178.383 57.128 178.839 57.0597 178.857L57.5809 180.788ZM71.8011 176.902C74.6438 176.119 77.8313 175.238 81.2871 174.278L80.7518 172.351C77.2976 173.311 74.1115 174.192 71.2701 174.974L71.8011 176.902ZM90.7751 171.631C93.82 170.777 96.9909 169.885 100.25 168.963L99.7056 167.038C96.4481 167.96 93.2788 168.852 90.2353 169.705L90.7751 171.631ZM109.712 166.272C112.833 165.379 115.999 164.469 119.181 163.549L118.625 161.628C115.445 162.547 112.282 163.457 109.162 164.349L109.712 166.272ZM128.634 160.795C131.807 159.864 134.966 158.93 138.083 158L137.512 156.083C134.397 157.013 131.241 157.946 128.071 158.876L128.634 160.795ZM147.509 155.159C150.739 154.175 153.885 153.203 156.913 152.254L156.315 150.346C153.292 151.293 150.151 152.263 146.926 153.246L147.509 155.159ZM166.308 149.251C169.68 148.15 172.812 147.096 175.637 146.107L174.976 144.219C172.167 145.202 169.049 146.252 165.687 147.35L166.308 149.251ZM184.927 142.62C186.826 141.833 188.367 141.117 189.462 140.491L188.469 138.754C187.484 139.318 186.034 139.996 184.161 140.773L184.927 142.62ZM189.462 140.491C190.562 139.861 191.977 139.101 193.676 138.185L192.727 136.425C191.039 137.334 189.596 138.11 188.469 138.754L189.462 140.491ZM202.214 133.461C204.796 131.975 207.614 130.29 210.599 128.388L209.524 126.701C206.569 128.585 203.777 130.254 201.216 131.728L202.214 133.461ZM218.701 122.934C221.251 121.12 223.868 119.161 226.518 117.047L225.27 115.483C222.651 117.573 220.064 119.51 217.542 121.304L218.701 122.934ZM233.993 110.718C236.36 108.591 238.728 106.336 241.074 103.948L239.647 102.546C237.332 104.903 234.994 107.129 232.656 109.231L233.993 110.718ZM247.697 96.7511C249.788 94.3239 251.841 91.7799 253.838 89.1144L252.237 87.9154C250.269 90.5431 248.244 93.0517 246.182 95.4458L247.697 96.7511ZM259.435 81.0683C261.172 78.3727 262.846 75.5685 264.441 72.652L262.686 71.6923C261.115 74.5656 259.466 77.3286 257.754 79.985L259.435 81.0683ZM268.831 63.8852C270.161 60.9676 271.412 57.9499 272.572 54.8292L270.697 54.1328C269.554 57.2077 268.322 60.1809 267.011 63.0553L268.831 63.8852ZM275.651 45.5383C276.552 42.4616 277.364 39.2943 278.079 36.034L276.125 35.6057C275.42 38.821 274.619 41.9437 273.732 44.9764L275.651 45.5383ZM279.857 26.4004C280.333 23.2463 280.719 20.0123 281.009 16.6968L279.017 16.5225C278.731 19.7968 278.349 22.9893 277.879 26.102L279.857 26.4004ZM281.571 6.93469C281.617 5.3081 281.64 3.66326 281.64 2H279.64C279.64 3.64451 279.617 5.27048 279.572 6.8781L281.571 6.93469ZM3.57896 607.862L1.60639 608.192L1.60639 608.192L3.57896 607.862ZM57.318 528.182L58.1985 529.978L58.1985 529.978L57.318 528.182ZM405.142 484.423L405.335 486.414L405.335 486.414L405.142 484.423ZM405.743 484.349L406.022 486.329L406.022 486.329L405.743 484.349ZM486.398 397.487L488.379 397.217L488.379 397.217L486.398 397.487ZM387.915 326.555L387.854 328.554L387.854 328.554L387.915 326.555ZM385.753 326.436L385.559 328.427L385.559 328.427L385.753 326.436ZM96.4768 291.084L96.0261 293.033L96.0261 293.033L96.4768 291.084ZM57.2919 179.83L56.7654 177.901L56.7645 177.901L57.2919 179.83ZM57.3203 179.823L56.799 177.892L56.7937 177.893L57.3203 179.823ZM188.966 139.622L189.959 141.359L189.959 141.359L188.966 139.622ZM282.055 0.585786C281.274 -0.195262 280.007 -0.195262 279.226 0.585786L266.498 13.3137C265.717 14.0948 265.717 15.3611 266.498 16.1421C267.279 16.9232 268.546 16.9232 269.327 16.1421L280.64 4.82843L291.954 16.1421C292.735 16.9232 294.001 16.9232 294.782 16.1421C295.564 15.3611 295.564 14.0948 294.782 13.3137L282.055 0.585786ZM145.98 687.021C144.479 686.802 142.919 686.559 141.307 686.293L140.655 690.24C142.291 690.51 143.875 690.756 145.402 690.979L145.98 687.021ZM131.964 684.593C128.971 684 125.859 683.34 122.655 682.612L121.769 686.513C125.009 687.249 128.157 687.917 131.187 688.517L131.964 684.593ZM113.421 680.383C110.409 679.613 107.344 678.788 104.242 677.907L103.149 681.755C106.285 682.646 109.386 683.48 112.43 684.258L113.421 680.383ZM95.126 675.18C92.1284 674.238 89.1158 673.244 86.1044 672.199L84.7925 675.977C87.8428 677.036 90.8929 678.042 93.9263 678.996L95.126 675.18ZM77.1798 668.941C74.2239 667.807 71.2853 666.622 68.3797 665.386L66.814 669.067C69.7661 670.323 72.7491 671.525 75.747 672.676L77.1798 668.941ZM59.7269 661.501C56.8517 660.137 54.0277 658.72 51.2711 657.25L49.3887 660.78C52.2045 662.281 55.0848 663.726 58.0127 665.115L59.7269 661.501ZM43.0517 652.577C40.3186 650.917 37.6798 649.2 35.1536 647.423L32.8525 650.695C35.4581 652.527 38.1725 654.294 40.9757 655.996L43.0517 652.577ZM27.6947 641.719C25.2443 639.673 22.9495 637.56 20.8321 635.381L17.9632 638.168C20.1863 640.457 22.5843 642.663 25.1308 644.79L27.6947 641.719ZM14.7904 628.318C12.9121 625.788 11.2742 623.182 9.90265 620.499L6.34106 622.32C7.82223 625.218 9.58054 628.011 11.5791 630.702L14.7904 628.318ZM6.54739 611.987C6.13702 610.524 5.8038 609.039 5.55153 607.532L1.60639 608.192C1.88277 609.844 2.24757 611.469 2.69604 613.068L6.54739 611.987ZM5.55153 607.532C5.3013 606.037 5.08292 604.576 4.89525 603.149L0.929383 603.67C1.12334 605.145 1.34869 606.652 1.60639 608.192L5.55153 607.532ZM4.09894 594.384C3.95349 591.294 3.97083 588.386 4.135 585.646L0.142162 585.407C-0.0310996 588.299 -0.0483293 591.35 0.103364 594.572L4.09894 594.384ZM5.21714 577.048C5.81088 574.058 6.60824 571.305 7.57902 568.761L3.84186 567.335C2.78797 570.097 1.92964 573.067 1.29377 576.269L5.21714 577.048ZM11.3692 561.091C12.9138 558.604 14.6603 556.349 16.5683 554.285L13.6313 551.57C11.5618 553.808 9.65823 556.264 7.97115 558.981L11.3692 561.091ZM22.9388 548.472C25.2241 546.693 27.6407 545.076 30.1448 543.577L28.0899 540.145C25.4727 541.712 22.9176 543.419 20.4821 545.315L22.9388 548.472ZM37.8827 539.384C40.5466 538.061 43.2419 536.819 45.9275 535.607L44.2819 531.961C41.5811 533.18 38.8335 534.445 36.1038 535.801L37.8827 539.384ZM54.1114 531.914C55.4952 531.277 56.8609 530.633 58.1985 529.978L56.4376 526.386C55.137 527.024 53.8017 527.653 52.4375 528.281L54.1114 531.914ZM58.1985 529.978C59.0301 529.57 60.3183 529.098 62.0929 528.576L60.964 524.739C59.1139 525.283 57.5721 525.83 56.4376 526.386L58.1985 529.978ZM70.959 526.416C73.6508 525.845 76.6806 525.254 80.0184 524.644L79.2994 520.709C75.9342 521.324 72.8662 521.923 70.1289 522.503L70.959 526.416ZM89.0784 523.067C91.9658 522.587 95.011 522.097 98.2004 521.6L97.5845 517.648C94.3832 518.147 91.3242 518.638 88.4214 519.122L89.0784 523.067ZM107.249 520.227C110.187 519.791 113.222 519.351 116.343 518.907L115.78 514.947C112.651 515.392 109.609 515.833 106.662 516.27L107.249 520.227ZM125.498 517.627C128.504 517.214 131.577 516.797 134.71 516.379L134.18 512.414C131.043 512.833 127.965 513.25 124.953 513.664L125.498 517.627ZM143.804 515.179C146.81 514.787 149.863 514.394 152.956 514L152.45 510.032C149.353 510.427 146.297 510.82 143.287 511.213L143.804 515.179ZM162.169 512.836C165.177 512.46 168.217 512.084 171.284 511.707L170.796 507.737C167.726 508.114 164.684 508.491 161.673 508.867L162.169 512.836ZM180.46 510.588C183.499 510.221 186.561 509.853 189.64 509.486L189.167 505.514C186.085 505.882 183.022 506.249 179.98 506.617L180.46 510.588ZM198.794 508.402C201.845 508.044 204.91 507.685 207.984 507.328L207.522 503.355C204.446 503.712 201.38 504.071 198.327 504.43L198.794 508.402ZM217.146 506.27C220.202 505.919 223.263 505.57 226.326 505.222L225.875 501.247C222.81 501.595 219.747 501.945 216.689 502.296L217.146 506.27ZM235.499 504.185C238.564 503.84 241.627 503.497 244.685 503.157L244.242 499.181C241.183 499.522 238.119 499.865 235.052 500.21L235.499 504.185ZM253.85 502.141C256.926 501.801 259.993 501.464 263.046 501.13L262.61 497.154C259.557 497.488 256.489 497.825 253.412 498.165L253.85 502.141ZM272.227 500.13C275.302 499.796 278.359 499.465 281.393 499.139L280.965 495.162C277.929 495.488 274.871 495.819 271.795 496.153L272.227 500.13ZM290.605 498.15C293.686 497.821 296.738 497.496 299.758 497.176L299.336 493.198C296.315 493.519 293.262 493.844 290.18 494.173L290.605 498.15ZM308.959 496.203C312.073 495.876 315.145 495.553 318.169 495.237L317.753 491.259C314.728 491.575 311.655 491.897 308.54 492.225L308.959 496.203ZM327.309 494.284C330.438 493.959 333.507 493.641 336.509 493.332L336.098 489.353C333.095 489.663 330.025 489.98 326.895 490.306L327.309 494.284ZM345.742 492.382C348.897 492.059 351.963 491.745 354.93 491.443L354.525 487.464C351.557 487.766 348.49 488.079 345.334 488.403L345.742 492.382ZM364.089 490.514C367.294 490.19 370.353 489.882 373.249 489.591L372.85 485.611C369.952 485.902 366.893 486.21 363.686 486.534L364.089 490.514ZM382.46 488.669C385.892 488.327 388.993 488.019 391.728 487.749L391.334 483.768C388.599 484.039 385.496 484.346 382.063 484.689L382.46 488.669ZM400.846 486.851C403.283 486.613 404.818 486.464 405.335 486.414L404.949 482.433C404.431 482.483 402.895 482.632 400.456 482.87L400.846 486.851ZM405.335 486.414C405.398 486.408 405.453 486.402 405.504 486.397L405.082 482.419C405.048 482.423 405.006 482.427 404.949 482.433L405.335 486.414ZM405.874 486.35C405.919 486.344 405.963 486.338 406.022 486.329L405.464 482.368C405.405 482.377 405.352 482.384 405.313 482.39L405.874 486.35ZM406.022 486.329C407.493 486.122 409.069 485.836 410.733 485.473L409.88 481.565C408.302 481.909 406.824 482.177 405.464 482.368L406.022 486.329ZM419.909 482.951C422.751 482.025 425.73 480.928 428.788 479.661L427.257 475.966C424.292 477.194 421.41 478.254 418.669 479.148L419.909 482.951ZM437.394 475.729C440.154 474.348 442.935 472.836 445.701 471.192L443.657 467.754C440.978 469.346 438.281 470.812 435.604 472.152L437.394 475.729ZM453.648 466.051C456.214 464.246 458.733 462.32 461.17 460.274L458.598 457.21C456.254 459.179 453.826 461.036 451.346 462.78L453.648 466.051ZM468.154 453.823C470.376 451.558 472.486 449.172 474.451 446.665L471.303 444.198C469.436 446.58 467.424 448.855 465.298 451.023L468.154 453.823ZM479.871 438.786C481.502 436.052 482.955 433.197 484.196 430.222L480.504 428.682C479.34 431.472 477.974 434.157 476.436 436.737L479.871 438.786ZM487.211 421.096C487.965 418.038 488.495 414.874 488.773 411.606L484.788 411.267C484.527 414.323 484.032 417.28 483.327 420.138L487.211 421.096ZM488.861 401.997C488.759 400.424 488.599 398.831 488.379 397.217L484.416 397.756C484.623 399.278 484.773 400.779 484.869 402.257L488.861 401.997ZM488.379 397.217C488.16 395.605 487.885 394.024 487.556 392.475L483.643 393.305C483.951 394.758 484.21 396.241 484.416 397.756L488.379 397.217ZM484.852 383.243C483.702 380.198 482.336 377.296 480.784 374.533L477.296 376.491C478.753 379.086 480.033 381.806 481.11 384.656L484.852 383.243ZM475.503 366.522C473.561 363.977 471.458 361.573 469.225 359.303L466.373 362.108C468.497 364.267 470.49 366.545 472.324 368.949L475.503 366.522ZM462.169 352.888C459.708 350.88 457.148 348.998 454.522 347.238L452.295 350.561C454.825 352.257 457.283 354.064 459.639 355.987L462.169 352.888ZM446.429 342.292C443.647 340.74 440.826 339.306 437.999 337.985L436.305 341.609C439.052 342.893 441.788 344.283 444.481 345.785L446.429 342.292ZM429.307 334.265C426.3 333.089 423.322 332.034 420.411 331.093L419.18 334.898C422.018 335.817 424.922 336.845 427.85 337.991L429.307 334.265ZM411.364 328.453C408.11 327.607 405.011 326.91 402.132 326.351L401.37 330.278C404.166 330.821 407.184 331.499 410.356 332.324L411.364 328.453ZM392.764 324.907C390.98 324.715 389.372 324.599 387.977 324.556L387.854 328.554C389.127 328.594 390.631 328.701 392.336 328.884L392.764 324.907ZM387.977 324.556C387.789 324.55 387.614 324.545 387.445 324.539L387.303 328.536C387.482 328.543 387.666 328.549 387.854 328.554L387.977 324.556ZM386.437 324.487C386.279 324.476 386.118 324.462 385.947 324.446L385.559 328.427C385.763 328.447 385.958 328.463 386.148 328.477L386.437 324.487ZM385.947 324.446C385.038 324.357 383.545 324.211 381.526 324.012L381.134 327.993C383.155 328.192 384.649 328.338 385.559 328.427L385.947 324.446ZM372.45 323.114C369.742 322.845 366.696 322.54 363.35 322.204L362.95 326.184C366.298 326.52 369.344 326.825 372.054 327.095L372.45 323.114ZM354.318 321.293C351.444 321.001 348.417 320.693 345.251 320.37L344.845 324.349C348.011 324.673 351.04 324.981 353.915 325.272L354.318 321.293ZM336.182 319.439C333.248 319.137 330.222 318.824 327.114 318.501L326.701 322.479C329.81 322.802 332.837 323.115 335.772 323.418L336.182 319.439ZM318.044 317.555C315.077 317.244 312.049 316.925 308.968 316.6L308.547 320.578C311.63 320.903 314.659 321.222 317.627 321.533L318.044 317.555ZM299.885 315.636C296.906 315.319 293.886 314.996 290.831 314.668L290.403 318.645C293.459 318.973 296.481 319.296 299.462 319.614L299.885 315.636ZM281.789 313.691C278.795 313.367 275.774 313.037 272.732 312.704L272.296 316.68C275.34 317.014 278.362 317.343 281.358 317.668L281.789 313.691ZM263.666 311.706C260.658 311.374 257.635 311.038 254.601 310.698L254.157 314.674C257.192 315.013 260.217 315.349 263.227 315.682L263.666 311.706ZM245.557 309.682C242.542 309.341 239.522 308.998 236.503 308.652L236.048 312.626C239.07 312.972 242.091 313.315 245.108 313.656L245.557 309.682ZM227.449 307.61C224.429 307.26 221.414 306.908 218.408 306.555L217.941 310.528C220.949 310.881 223.967 311.233 226.989 311.583L227.449 307.61ZM209.355 305.484C206.32 305.122 203.3 304.759 200.301 304.395L199.82 308.366C202.822 308.73 205.844 309.093 208.881 309.455L209.355 305.484ZM191.258 303.29C188.221 302.915 185.211 302.541 182.234 302.166L181.735 306.135C184.715 306.51 187.729 306.885 190.768 307.26L191.258 303.29ZM173.21 301.018C170.148 300.625 167.128 300.231 164.157 299.84L163.634 303.805C166.609 304.198 169.633 304.591 172.7 304.986L173.21 301.018ZM155.117 298.63C152.04 298.213 149.029 297.797 146.09 297.385L145.533 301.346C148.479 301.759 151.497 302.176 154.579 302.594L155.117 298.63ZM137.075 296.094C133.968 295.639 130.963 295.189 128.072 294.744L127.464 298.698C130.366 299.144 133.381 299.596 136.496 300.051L137.075 296.094ZM119.087 293.319C115.921 292.799 112.937 292.288 110.156 291.788L109.448 295.725C112.252 296.229 115.256 296.743 118.439 297.266L119.087 293.319ZM101.267 290.082C99.711 289.76 98.2626 289.444 96.9274 289.136L96.0261 293.033C97.3961 293.35 98.875 293.672 100.456 293.999L101.267 290.082ZM96.9274 289.136C95.4589 288.796 94.0115 288.452 92.5852 288.103L91.6355 291.989C93.0784 292.342 94.5419 292.689 96.0261 293.033L96.9274 289.136ZM83.9601 285.87C81.0133 285.061 78.1684 284.23 75.4247 283.377L74.2369 287.197C77.0262 288.064 79.9142 288.907 82.9014 289.727L83.9601 285.87ZM67.0034 280.575C64.1178 279.547 61.3639 278.489 58.7404 277.402L57.2089 281.097C59.8992 282.212 62.7164 283.294 65.6607 284.343L67.0034 280.575ZM50.6969 273.775C47.9386 272.419 45.3616 271.022 42.9631 269.584L40.9063 273.015C43.4083 274.515 46.0835 275.964 48.932 277.365L50.6969 273.775ZM35.7169 264.708C33.2914 262.864 31.125 260.962 29.211 259.001L26.349 261.796C28.4132 263.91 30.7295 265.941 33.2959 267.892L35.7169 264.708ZM23.8254 252.358C22.2266 249.922 20.9571 247.4 20.008 244.79L16.2487 246.156C17.3077 249.069 18.7191 251.868 20.4813 254.553L23.8254 252.358ZM18.0973 236.551C17.9443 235.16 17.8676 233.742 17.8676 232.296H13.8676C13.8676 233.884 13.9518 235.448 14.1213 236.988L18.0973 236.551ZM17.8676 232.296C17.8676 230.868 17.9422 229.459 18.0859 228.068L14.107 227.657C13.9496 229.182 13.8676 230.729 13.8676 232.296H17.8676ZM19.79 219.773C20.6307 217.047 21.7226 214.416 23.0164 211.893L19.4571 210.068C18.0652 212.782 16.8821 215.629 15.9677 218.594L19.79 219.773ZM27.5036 204.596C29.1985 202.248 31.05 200.036 33.0011 197.978L30.0981 195.226C28.0325 197.405 26.0659 199.754 24.2603 202.255L27.5036 204.596ZM39.3127 192.103C41.6275 190.203 43.9843 188.518 46.3027 187.072L44.186 183.678C41.7185 185.217 39.221 187.003 36.7743 189.012L39.3127 192.103ZM53.8718 183.128C55.2617 182.554 56.5848 182.097 57.8194 181.76L56.7645 177.901C55.3489 178.288 53.8674 178.802 52.3443 179.431L53.8718 183.128ZM57.8185 181.76L57.8256 181.758L56.7724 177.899L56.7654 177.901L57.8185 181.76ZM57.8397 181.754L57.8468 181.752L56.7937 177.893L56.7866 177.895L57.8397 181.754ZM57.8415 181.753C57.912 181.734 59.6013 181.278 62.5503 180.474L61.4982 176.615C58.5528 177.418 56.8666 177.873 56.799 177.892L57.8415 181.753ZM72.0666 177.866C74.91 177.083 78.0982 176.202 81.5548 175.242L80.4841 171.388C77.0307 172.347 73.8454 173.228 71.0046 174.01L72.0666 177.866ZM91.0449 172.594C94.0907 171.74 97.2623 170.847 100.522 169.925L99.4333 166.076C96.1767 166.998 93.0082 167.889 89.9654 168.742L91.0449 172.594ZM109.987 167.233C113.109 166.341 116.276 165.43 119.459 164.509L118.347 160.667C115.169 161.587 112.006 162.496 108.887 163.387L109.987 167.233ZM128.916 161.754C132.089 160.823 135.25 159.889 138.369 158.958L137.226 155.125C134.113 156.054 130.958 156.987 127.79 157.916L128.916 161.754ZM147.801 156.115C151.032 155.13 154.181 154.159 157.212 153.208L156.015 149.391C152.996 150.338 149.857 151.307 146.635 152.289L147.801 156.115ZM166.619 150.202C169.995 149.099 173.134 148.042 175.967 147.05L174.645 143.275C171.845 144.256 168.733 145.303 165.376 146.4L166.619 150.202ZM185.31 143.544C187.222 142.751 188.809 142.016 189.959 141.359L187.973 137.886C187.042 138.418 185.638 139.077 183.777 139.849L185.31 143.544ZM189.959 141.359C191.045 140.737 192.447 139.984 194.15 139.066L192.253 135.544C190.57 136.451 189.114 137.234 187.973 137.886L189.959 141.359ZM202.713 134.328C205.305 132.836 208.136 131.143 211.137 129.231L208.987 125.858C206.046 127.732 203.267 129.394 200.718 130.861L202.713 134.328ZM219.281 123.749C221.845 121.925 224.476 119.955 227.141 117.829L224.647 114.702C222.043 116.779 219.471 118.705 216.962 120.489L219.281 123.749ZM234.661 111.462C237.043 109.321 239.426 107.052 241.787 104.648L238.933 101.846C236.634 104.187 234.311 106.399 231.987 108.487L234.661 111.462ZM248.455 97.4037C250.56 94.96 252.627 92.3983 254.638 89.7139L251.437 87.3159C249.482 89.9247 247.473 92.4156 245.425 94.7931L248.455 97.4037ZM260.276 81.61C262.025 78.8947 263.711 76.0699 265.318 73.1319L261.809 71.2124C260.249 74.0641 258.612 76.8065 256.913 79.4433L260.276 81.61ZM269.741 64.3002C271.081 61.3609 272.341 58.321 273.509 55.1774L269.759 53.7845C268.626 56.8366 267.402 59.7875 266.101 62.6403L269.741 64.3002ZM276.611 45.8192C277.518 42.7205 278.336 39.5309 279.056 36.2482L275.148 35.3916C274.448 38.5844 273.653 41.6848 272.772 44.6955L276.611 45.8192ZM280.846 26.5496C281.325 23.3747 281.714 20.1201 282.006 16.7839L278.021 16.4354C277.736 19.6891 277.357 22.8609 276.891 25.9528L280.846 26.5496ZM282.571 6.96299C282.617 5.32691 282.64 3.67264 282.64 2H278.64C278.64 3.63514 278.617 5.25167 278.572 6.8498L282.571 6.96299Z" fill="url(#paint1_radial_4_817)"/>
<path d="M3.57896 607.862L2.59267 608.027L2.59267 608.027L3.57896 607.862ZM57.318 528.182L57.7583 529.08L57.7583 529.08L57.318 528.182ZM405.142 484.423L405.239 485.419L405.239 485.419L405.142 484.423ZM405.743 484.349L405.883 485.339L405.883 485.339L405.743 484.349ZM486.398 397.487L487.388 397.352L487.388 397.352L486.398 397.487ZM387.915 326.555L387.884 327.555L387.884 327.555L387.915 326.555ZM385.753 326.436L385.656 327.431L385.656 327.431L385.753 326.436ZM96.4768 291.084L96.2515 292.058L96.2515 292.058L96.4768 291.084ZM57.2919 179.83L57.0286 178.866L57.0282 178.866L57.2919 179.83ZM57.3203 179.823L57.0597 178.857L57.057 178.858L57.3203 179.823ZM188.966 139.622L189.462 140.491L189.462 140.491L188.966 139.622ZM281.347 1.29289C280.957 0.902369 280.324 0.902369 279.933 1.29289L273.569 7.65685C273.179 8.04738 273.179 8.68054 273.569 9.07107C273.96 9.46159 274.593 9.46159 274.983 9.07107L280.64 3.41421L286.297 9.07107C286.688 9.46159 287.321 9.46159 287.711 9.07107C288.102 8.68054 288.102 8.04738 287.711 7.65685L281.347 1.29289ZM145.835 688.01C144.328 687.79 142.762 687.547 141.144 687.28L140.818 689.253C142.448 689.522 144.026 689.768 145.547 689.99L145.835 688.01ZM131.77 685.574C128.768 684.979 125.647 684.317 122.434 683.587L121.991 685.537C125.222 686.272 128.361 686.938 131.381 687.536L131.77 685.574ZM113.173 681.352C110.153 680.58 107.079 679.753 103.969 678.869L103.422 680.793C106.55 681.681 109.641 682.514 112.678 683.289L113.173 681.352ZM94.8261 676.134C91.8195 675.189 88.7975 674.192 85.7764 673.143L85.1205 675.033C88.1611 676.088 91.2017 677.091 94.2263 678.042L94.8261 676.134ZM76.8216 669.875C73.8552 668.737 70.9055 667.547 67.9882 666.306L67.2054 668.147C70.1459 669.398 73.1178 670.596 76.1052 671.742L76.8216 669.875ZM59.2983 662.404C56.41 661.034 53.5719 659.611 50.8005 658.132L49.8593 659.897C52.6603 661.391 55.5265 662.829 58.4413 664.211L59.2983 662.404ZM42.5327 653.432C39.7821 651.762 37.1244 650.031 34.5783 648.241L33.4278 649.877C36.0135 651.695 38.709 653.45 41.4947 655.141L42.5327 653.432ZM27.0538 642.487C24.5793 640.421 22.2587 638.284 20.1149 636.078L18.6805 637.472C20.8771 639.733 23.2493 641.916 25.7718 644.022L27.0538 642.487ZM13.9876 628.914C12.0792 626.344 10.4112 623.691 9.01225 620.955L7.23146 621.865C8.68521 624.709 10.4134 627.455 12.3819 630.106L13.9876 628.914ZM5.58455 612.258C5.16466 610.761 4.82354 609.241 4.56524 607.697L2.59267 608.027C2.86303 609.643 3.21993 611.233 3.65888 612.798L5.58455 612.258ZM4.56524 607.697C4.31315 606.191 4.09302 604.718 3.90379 603.279L1.92085 603.54C2.11324 605.003 2.33685 606.498 2.59267 608.027L4.56524 607.697ZM3.10004 594.431C2.95303 591.308 2.97035 588.364 3.13679 585.586L1.14037 585.467C0.969384 588.321 0.952125 591.336 1.10226 594.525L3.10004 594.431ZM4.2363 576.853C4.84057 573.81 5.65317 571.003 6.64473 568.405L4.77615 567.692C3.74304 570.399 2.89995 573.315 2.27461 576.463L4.2363 576.853ZM10.5197 560.564C12.0999 558.019 13.8857 555.714 15.834 553.606L14.3656 552.249C12.3365 554.443 10.4721 556.849 8.82066 559.509L10.5197 560.564ZM22.3247 547.682C24.6475 545.875 27.0987 544.235 29.6311 542.719L28.6036 541.003C26.0147 542.553 23.4942 544.238 21.0963 546.104L22.3247 547.682ZM37.438 538.488C40.1183 537.157 42.8267 535.909 45.5161 534.695L44.6933 532.873C41.9963 534.09 39.2618 535.349 36.5485 536.696L37.438 538.488ZM53.6929 531.006C55.0718 530.371 56.4299 529.731 57.7583 529.08L56.8778 527.284C55.568 527.926 54.2251 528.559 52.856 529.19L53.6929 531.006ZM57.7583 529.08C58.6656 528.635 60.0172 528.145 61.8107 527.617L61.2463 525.698C59.415 526.237 57.9366 526.765 56.8778 527.284L57.7583 529.08ZM70.7514 525.438C73.4547 524.865 76.494 524.271 79.8386 523.66L79.4791 521.693C76.1208 522.306 73.0624 522.903 70.3364 523.482L70.7514 525.438ZM88.9141 522.081C91.8054 521.6 94.854 521.11 98.0464 520.612L97.7385 518.636C94.5401 519.134 91.4846 519.625 88.5856 520.108L88.9141 522.081ZM107.102 519.237C110.043 518.802 113.079 518.361 116.203 517.917L115.921 515.937C112.794 516.382 109.754 516.823 106.809 517.259L107.102 519.237ZM125.362 516.636C128.369 516.223 131.444 515.806 134.578 515.388L134.313 513.405C131.176 513.824 128.1 514.241 125.089 514.655L125.362 516.636ZM143.675 514.188C146.682 513.796 149.735 513.402 152.83 513.008L152.577 511.024C149.481 511.418 146.426 511.812 143.416 512.204L143.675 514.188ZM162.045 511.844C165.054 511.468 168.094 511.091 171.162 510.714L170.918 508.729C167.849 509.106 164.807 509.483 161.797 509.86L162.045 511.844ZM180.34 509.595C183.38 509.228 186.442 508.86 189.522 508.493L189.285 506.507C186.204 506.874 183.141 507.242 180.1 507.61L180.34 509.595ZM198.677 507.409C201.729 507.05 204.794 506.692 207.868 506.335L207.637 504.348C204.562 504.706 201.496 505.064 198.444 505.423L198.677 507.409ZM217.032 505.277C220.088 504.926 223.15 504.576 226.213 504.228L225.988 502.241C222.923 502.589 219.861 502.939 216.803 503.29L217.032 505.277ZM235.388 503.191C238.453 502.846 241.516 502.504 244.574 502.163L244.352 500.175C241.294 500.516 238.23 500.859 235.164 501.204L235.388 503.191ZM253.741 501.147C256.817 500.807 259.884 500.47 262.937 500.136L262.719 498.148C259.666 498.482 256.598 498.819 253.521 499.159L253.741 501.147ZM272.119 499.135C275.194 498.802 278.251 498.471 281.286 498.144L281.072 496.156C278.037 496.483 274.979 496.813 271.903 497.147L272.119 499.135ZM290.499 497.156C293.58 496.827 296.633 496.502 299.652 496.182L299.441 494.193C296.421 494.513 293.368 494.838 290.287 495.167L290.499 497.156ZM308.855 495.209C311.968 494.881 315.04 494.559 318.065 494.242L317.857 492.253C314.832 492.57 311.759 492.892 308.645 493.22L308.855 495.209ZM327.205 493.29C330.335 492.964 333.404 492.647 336.406 492.337L336.201 490.347C333.198 490.657 330.128 490.975 326.999 491.3L327.205 493.29ZM345.64 491.387C348.796 491.064 351.862 490.751 354.829 490.449L354.626 488.459C351.659 488.761 348.592 489.074 345.436 489.398L345.64 491.387ZM363.988 489.519C367.194 489.195 370.252 488.887 373.15 488.596L372.95 486.606C370.052 486.897 366.993 487.205 363.787 487.529L363.988 489.519ZM382.36 487.674C385.793 487.332 388.895 487.024 391.629 486.754L391.433 484.763C388.697 485.034 385.595 485.341 382.162 485.684L382.36 487.674ZM400.748 485.856C403.186 485.618 404.721 485.469 405.239 485.419L405.046 483.428C404.528 483.478 402.992 483.627 400.553 483.866L400.748 485.856ZM405.239 485.419C405.3 485.413 405.352 485.407 405.398 485.402L405.188 483.414C405.149 483.418 405.104 483.422 405.046 483.428L405.239 485.419ZM405.733 485.36C405.777 485.354 405.824 485.347 405.883 485.339L405.604 483.359C405.544 483.367 405.494 483.374 405.453 483.38L405.733 485.36ZM405.883 485.339C407.326 485.136 408.877 484.854 410.519 484.496L410.093 482.542C408.494 482.891 406.991 483.163 405.604 483.359L405.883 485.339ZM419.599 482.001C422.416 481.082 425.37 479.994 428.405 478.737L427.64 476.89C424.652 478.127 421.745 479.197 418.979 480.099L419.599 482.001ZM436.947 474.835C439.686 473.464 442.446 471.963 445.19 470.333L444.168 468.613C441.467 470.218 438.749 471.696 436.052 473.046L436.947 474.835ZM453.073 465.234C455.617 463.443 458.113 461.535 460.527 459.508L459.241 457.976C456.873 459.964 454.423 461.838 451.922 463.598L453.073 465.234ZM467.44 453.123C469.638 450.882 471.724 448.524 473.664 446.048L472.09 444.815C470.198 447.228 468.162 449.531 466.012 451.723L467.44 453.123ZM479.012 438.274C480.62 435.578 482.051 432.766 483.273 429.837L481.427 429.067C480.244 431.903 478.856 434.631 477.295 437.249L479.012 438.274ZM486.24 420.856C486.981 417.848 487.503 414.737 487.777 411.521L485.784 411.352C485.519 414.461 485.015 417.47 484.298 420.378L486.24 420.856ZM487.863 402.062C487.762 400.513 487.605 398.943 487.388 397.352L485.407 397.621C485.617 399.166 485.769 400.69 485.867 402.192L487.863 402.062ZM487.388 397.352C487.173 395.764 486.901 394.208 486.578 392.682L484.621 393.097C484.935 394.574 485.197 396.082 485.407 397.621L487.388 397.352ZM483.917 383.596C482.785 380.6 481.44 377.744 479.912 375.022L478.168 376.001C479.649 378.638 480.951 381.404 482.046 384.303L483.917 383.596ZM474.709 367.129C472.793 364.619 470.718 362.246 468.512 360.004L467.086 361.407C469.237 363.593 471.258 365.903 473.119 368.342L474.709 367.129ZM461.536 353.663C459.101 351.676 456.567 349.813 453.965 348.069L452.852 349.73C455.406 351.442 457.889 353.268 460.272 355.212L461.536 353.663ZM445.942 343.165C443.182 341.626 440.383 340.203 437.575 338.891L436.729 340.703C439.496 341.996 442.253 343.397 444.968 344.912L445.942 343.165ZM428.943 335.197C425.955 334.028 422.996 332.98 420.103 332.044L419.488 333.947C422.344 334.871 425.266 335.906 428.215 337.059L428.943 335.197ZM411.112 329.421C407.879 328.58 404.8 327.888 401.941 327.333L401.56 329.296C404.377 329.843 407.415 330.526 410.608 331.357L411.112 329.421ZM392.657 325.902C390.893 325.712 389.311 325.598 387.946 325.556L387.884 327.555C389.189 327.595 390.718 327.704 392.443 327.89L392.657 325.902ZM387.946 325.556C387.758 325.55 387.581 325.544 387.41 325.538L387.338 327.537C387.515 327.543 387.696 327.549 387.884 327.555L387.946 325.556ZM386.365 325.485C386.199 325.473 386.029 325.458 385.85 325.441L385.656 327.431C385.852 327.451 386.038 327.466 386.22 327.479L386.365 325.485ZM385.85 325.441C384.94 325.352 383.447 325.206 381.428 325.008L381.232 326.998C383.252 327.197 384.746 327.343 385.656 327.431L385.85 325.441ZM372.351 324.109C369.642 323.84 366.597 323.535 363.25 323.199L363.05 325.189C366.398 325.525 369.444 325.83 372.153 326.099L372.351 324.109ZM354.218 322.287C351.343 321.996 348.315 321.688 345.15 321.364L344.946 323.354C348.112 323.678 351.141 323.986 354.016 324.277L354.218 322.287ZM336.08 320.434C333.145 320.131 330.119 319.818 327.011 319.495L326.804 321.485C329.913 321.808 332.94 322.121 335.875 322.423L336.08 320.434ZM317.939 318.549C314.972 318.238 311.944 317.92 308.863 317.594L308.652 319.583C311.734 319.909 314.763 320.227 317.731 320.538L317.939 318.549ZM299.779 316.631C296.8 316.313 293.779 315.99 290.724 315.662L290.51 317.65C293.566 317.979 296.587 318.302 299.568 318.62L299.779 316.631ZM281.681 314.686C278.686 314.361 275.665 314.031 272.623 313.698L272.405 315.686C275.448 316.02 278.47 316.349 281.466 316.674L281.681 314.686ZM263.556 312.7C260.548 312.368 257.524 312.031 254.49 311.692L254.268 313.68C257.303 314.019 260.327 314.355 263.337 314.688L263.556 312.7ZM245.445 310.675C242.429 310.334 239.409 309.991 236.389 309.646L236.162 311.633C239.183 311.978 242.204 312.322 245.22 312.663L245.445 310.675ZM227.334 308.603C224.314 308.253 221.298 307.901 218.291 307.548L218.058 309.534C221.065 309.888 224.082 310.24 227.104 310.59L227.334 308.603ZM209.236 306.477C206.201 306.115 203.181 305.752 200.181 305.388L199.94 307.374C202.941 307.737 205.963 308.1 209 308.463L209.236 306.477ZM191.136 304.283C188.098 303.908 185.087 303.533 182.109 303.158L181.86 305.143C184.839 305.517 187.852 305.893 190.891 306.267L191.136 304.283ZM173.082 302.01C170.019 301.616 166.998 301.223 164.026 300.831L163.765 302.814C166.739 303.206 169.762 303.6 172.827 303.994L173.082 302.01ZM154.982 299.621C151.904 299.204 148.891 298.788 145.95 298.375L145.672 300.356C148.616 300.769 151.633 301.185 154.713 301.603L154.982 299.621ZM136.93 297.083C133.821 296.628 130.814 296.178 127.92 295.733L127.616 297.71C130.515 298.156 133.527 298.607 136.641 299.062L136.93 297.083ZM118.925 294.305C115.754 293.785 112.766 293.273 109.979 292.772L109.625 294.741C112.424 295.244 115.422 295.757 118.601 296.279L118.925 294.305ZM101.064 291.062C99.502 290.738 98.046 290.421 96.7021 290.11L96.2515 292.058C97.6127 292.373 99.084 292.694 100.659 293.02L101.064 291.062ZM96.7021 290.11C95.2297 289.769 93.7782 289.424 92.3478 289.075L91.8729 291.017C93.3117 291.369 94.7712 291.716 96.2515 292.058L96.7021 290.11ZM83.6954 286.834C80.7385 286.023 77.8829 285.189 75.1277 284.332L74.5339 286.242C77.3117 287.106 80.189 287.946 83.1661 288.763L83.6954 286.834ZM66.6677 281.517C63.7674 280.483 60.9977 279.42 58.3575 278.326L57.5918 280.173C60.2654 281.281 63.0667 282.357 65.9963 283.401L66.6677 281.517ZM50.2556 274.672C47.4748 273.305 44.8732 271.895 42.4489 270.442L41.4205 272.157C43.8966 273.642 46.5473 275.078 49.3732 276.467L50.2556 274.672ZM35.1116 265.504C32.6509 263.633 30.4471 261.699 28.4955 259.7L27.0645 261.097C29.0912 263.173 31.37 265.171 33.9012 267.096L35.1116 265.504ZM22.9894 252.907C21.3497 250.408 20.0447 247.818 19.0681 245.131L17.1885 245.815C18.2201 248.652 19.596 251.381 21.3173 254.004L22.9894 252.907ZM17.1033 236.66C16.9461 235.232 16.8676 233.777 16.8676 232.296H14.8676C14.8676 233.848 14.9499 235.376 15.1153 236.879L17.1033 236.66ZM16.8676 232.296C16.8676 230.833 16.9441 229.389 17.0912 227.966L15.1018 227.76C14.9477 229.251 14.8676 230.764 14.8676 232.296H16.8676ZM18.8344 219.478C19.6935 216.693 20.8083 214.007 22.1266 211.436L20.3469 210.524C18.9795 213.19 17.8193 215.984 16.9233 218.888L18.8344 219.478ZM26.6928 204.011C28.4154 201.624 30.2956 199.378 32.2753 197.29L30.8238 195.914C28.7868 198.063 26.8491 200.377 25.0711 202.841L26.6928 204.011ZM38.6781 191.33C41.0259 189.403 43.4178 187.693 45.7735 186.224L44.7152 184.527C42.2849 186.042 39.8226 187.803 37.4089 189.785L38.6781 191.33ZM53.4899 182.204C54.9131 181.616 56.2758 181.145 57.5556 180.795L57.0282 178.866C55.6579 179.24 54.216 179.74 52.7261 180.356L53.4899 182.204ZM57.5552 180.795L57.5623 180.793L57.0357 178.864L57.0286 178.866L57.5552 180.795ZM57.5765 180.789L57.5836 180.787L57.057 178.858L57.0499 178.86L57.5765 180.789ZM57.5809 180.788C57.6506 180.769 59.3392 180.313 62.2873 179.51L61.7612 177.58C58.8149 178.383 57.128 178.839 57.0597 178.857L57.5809 180.788ZM71.8011 176.902C74.6438 176.119 77.8313 175.238 81.2871 174.278L80.7518 172.351C77.2976 173.311 74.1115 174.192 71.2701 174.974L71.8011 176.902ZM90.7751 171.631C93.82 170.777 96.9909 169.885 100.25 168.963L99.7056 167.038C96.4481 167.96 93.2788 168.852 90.2353 169.705L90.7751 171.631ZM109.712 166.272C112.833 165.379 115.999 164.469 119.181 163.549L118.625 161.628C115.445 162.547 112.282 163.457 109.162 164.349L109.712 166.272ZM128.634 160.795C131.807 159.864 134.966 158.93 138.083 158L137.512 156.083C134.397 157.013 131.241 157.946 128.071 158.876L128.634 160.795ZM147.509 155.159C150.739 154.175 153.885 153.203 156.913 152.254L156.315 150.346C153.292 151.293 150.151 152.263 146.926 153.246L147.509 155.159ZM166.308 149.251C169.68 148.15 172.812 147.096 175.637 146.107L174.976 144.219C172.167 145.202 169.049 146.252 165.687 147.35L166.308 149.251ZM184.927 142.62C186.826 141.833 188.367 141.117 189.462 140.491L188.469 138.754C187.484 139.318 186.034 139.996 184.161 140.773L184.927 142.62ZM189.462 140.491C190.562 139.861 191.977 139.101 193.676 138.185L192.727 136.425C191.039 137.334 189.596 138.11 188.469 138.754L189.462 140.491ZM202.214 133.461C204.796 131.975 207.614 130.29 210.599 128.388L209.524 126.701C206.569 128.585 203.777 130.254 201.216 131.728L202.214 133.461ZM218.701 122.934C221.251 121.12 223.868 119.161 226.518 117.047L225.27 115.483C222.651 117.573 220.064 119.51 217.542 121.304L218.701 122.934ZM233.993 110.718C236.36 108.591 238.728 106.336 241.074 103.948L239.647 102.546C237.332 104.903 234.994 107.129 232.656 109.231L233.993 110.718ZM247.697 96.7511C249.788 94.3239 251.841 91.7799 253.838 89.1144L252.237 87.9154C250.269 90.5431 248.244 93.0517 246.182 95.4458L247.697 96.7511ZM259.435 81.0683C261.172 78.3727 262.846 75.5685 264.441 72.652L262.686 71.6923C261.115 74.5656 259.466 77.3286 257.754 79.985L259.435 81.0683ZM268.831 63.8852C270.161 60.9676 271.412 57.9499 272.572 54.8292L270.697 54.1328C269.554 57.2077 268.322 60.1809 267.011 63.0553L268.831 63.8852ZM275.651 45.5383C276.552 42.4616 277.364 39.2943 278.079 36.034L276.125 35.6057C275.42 38.821 274.619 41.9437 273.732 44.9764L275.651 45.5383ZM279.857 26.4004C280.333 23.2463 280.719 20.0123 281.009 16.6968L279.017 16.5225C278.731 19.7968 278.349 22.9893 277.879 26.102L279.857 26.4004ZM281.571 6.93469C281.617 5.3081 281.64 3.66326 281.64 2H279.64C279.64 3.64451 279.617 5.27048 279.572 6.8781L281.571 6.93469ZM3.57896 607.862L1.60639 608.192L1.60639 608.192L3.57896 607.862ZM57.318 528.182L58.1985 529.978L58.1985 529.978L57.318 528.182ZM405.142 484.423L405.335 486.414L405.335 486.414L405.142 484.423ZM405.743 484.349L406.022 486.329L406.022 486.329L405.743 484.349ZM486.398 397.487L488.379 397.217L488.379 397.217L486.398 397.487ZM387.915 326.555L387.854 328.554L387.854 328.554L387.915 326.555ZM385.753 326.436L385.559 328.427L385.559 328.427L385.753 326.436ZM96.4768 291.084L96.0261 293.033L96.0261 293.033L96.4768 291.084ZM57.2919 179.83L56.7654 177.901L56.7645 177.901L57.2919 179.83ZM57.3203 179.823L56.799 177.892L56.7937 177.893L57.3203 179.823ZM188.966 139.622L189.959 141.359L189.959 141.359L188.966 139.622ZM282.055 0.585786C281.274 -0.195262 280.007 -0.195262 279.226 0.585786L266.498 13.3137C265.717 14.0948 265.717 15.3611 266.498 16.1421C267.279 16.9232 268.546 16.9232 269.327 16.1421L280.64 4.82843L291.954 16.1421C292.735 16.9232 294.001 16.9232 294.782 16.1421C295.564 15.3611 295.564 14.0948 294.782 13.3137L282.055 0.585786ZM145.98 687.021C144.479 686.802 142.919 686.559 141.307 686.293L140.655 690.24C142.291 690.51 143.875 690.756 145.402 690.979L145.98 687.021ZM131.964 684.593C128.971 684 125.859 683.34 122.655 682.612L121.769 686.513C125.009 687.249 128.157 687.917 131.187 688.517L131.964 684.593ZM113.421 680.383C110.409 679.613 107.344 678.788 104.242 677.907L103.149 681.755C106.285 682.646 109.386 683.48 112.43 684.258L113.421 680.383ZM95.126 675.18C92.1284 674.238 89.1158 673.244 86.1044 672.199L84.7925 675.977C87.8428 677.036 90.8929 678.042 93.9263 678.996L95.126 675.18ZM77.1798 668.941C74.2239 667.807 71.2853 666.622 68.3797 665.386L66.814 669.067C69.7661 670.323 72.7491 671.525 75.747 672.676L77.1798 668.941ZM59.7269 661.501C56.8517 660.137 54.0277 658.72 51.2711 657.25L49.3887 660.78C52.2045 662.281 55.0848 663.726 58.0127 665.115L59.7269 661.501ZM43.0517 652.577C40.3186 650.917 37.6798 649.2 35.1536 647.423L32.8525 650.695C35.4581 652.527 38.1725 654.294 40.9757 655.996L43.0517 652.577ZM27.6947 641.719C25.2443 639.673 22.9495 637.56 20.8321 635.381L17.9632 638.168C20.1863 640.457 22.5843 642.663 25.1308 644.79L27.6947 641.719ZM14.7904 628.318C12.9121 625.788 11.2742 623.182 9.90265 620.499L6.34106 622.32C7.82223 625.218 9.58054 628.011 11.5791 630.702L14.7904 628.318ZM6.54739 611.987C6.13702 610.524 5.8038 609.039 5.55153 607.532L1.60639 608.192C1.88277 609.844 2.24757 611.469 2.69604 613.068L6.54739 611.987ZM5.55153 607.532C5.3013 606.037 5.08292 604.576 4.89525 603.149L0.929383 603.67C1.12334 605.145 1.34869 606.652 1.60639 608.192L5.55153 607.532ZM4.09894 594.384C3.95349 591.294 3.97083 588.386 4.135 585.646L0.142162 585.407C-0.0310996 588.299 -0.0483293 591.35 0.103364 594.572L4.09894 594.384ZM5.21714 577.048C5.81088 574.058 6.60824 571.305 7.57902 568.761L3.84186 567.335C2.78797 570.097 1.92964 573.067 1.29377 576.269L5.21714 577.048ZM11.3692 561.091C12.9138 558.604 14.6603 556.349 16.5683 554.285L13.6313 551.57C11.5618 553.808 9.65823 556.264 7.97115 558.981L11.3692 561.091ZM22.9388 548.472C25.2241 546.693 27.6407 545.076 30.1448 543.577L28.0899 540.145C25.4727 541.712 22.9176 543.419 20.4821 545.315L22.9388 548.472ZM37.8827 539.384C40.5466 538.061 43.2419 536.819 45.9275 535.607L44.2819 531.961C41.5811 533.18 38.8335 534.445 36.1038 535.801L37.8827 539.384ZM54.1114 531.914C55.4952 531.277 56.8609 530.633 58.1985 529.978L56.4376 526.386C55.137 527.024 53.8017 527.653 52.4375 528.281L54.1114 531.914ZM58.1985 529.978C59.0301 529.57 60.3183 529.098 62.0929 528.576L60.964 524.739C59.1139 525.283 57.5721 525.83 56.4376 526.386L58.1985 529.978ZM70.959 526.416C73.6508 525.845 76.6806 525.254 80.0184 524.644L79.2994 520.709C75.9342 521.324 72.8662 521.923 70.1289 522.503L70.959 526.416ZM89.0784 523.067C91.9658 522.587 95.011 522.097 98.2004 521.6L97.5845 517.648C94.3832 518.147 91.3242 518.638 88.4214 519.122L89.0784 523.067ZM107.249 520.227C110.187 519.791 113.222 519.351 116.343 518.907L115.78 514.947C112.651 515.392 109.609 515.833 106.662 516.27L107.249 520.227ZM125.498 517.627C128.504 517.214 131.577 516.797 134.71 516.379L134.18 512.414C131.043 512.833 127.965 513.25 124.953 513.664L125.498 517.627ZM143.804 515.179C146.81 514.787 149.863 514.394 152.956 514L152.45 510.032C149.353 510.427 146.297 510.82 143.287 511.213L143.804 515.179ZM162.169 512.836C165.177 512.46 168.217 512.084 171.284 511.707L170.796 507.737C167.726 508.114 164.684 508.491 161.673 508.867L162.169 512.836ZM180.46 510.588C183.499 510.221 186.561 509.853 189.64 509.486L189.167 505.514C186.085 505.882 183.022 506.249 179.98 506.617L180.46 510.588ZM198.794 508.402C201.845 508.044 204.91 507.685 207.984 507.328L207.522 503.355C204.446 503.712 201.38 504.071 198.327 504.43L198.794 508.402ZM217.146 506.27C220.202 505.919 223.263 505.57 226.326 505.222L225.875 501.247C222.81 501.595 219.747 501.945 216.689 502.296L217.146 506.27ZM235.499 504.185C238.564 503.84 241.627 503.497 244.685 503.157L244.242 499.181C241.183 499.522 238.119 499.865 235.052 500.21L235.499 504.185ZM253.85 502.141C256.926 501.801 259.993 501.464 263.046 501.13L262.61 497.154C259.557 497.488 256.489 497.825 253.412 498.165L253.85 502.141ZM272.227 500.13C275.302 499.796 278.359 499.465 281.393 499.139L280.965 495.162C277.929 495.488 274.871 495.819 271.795 496.153L272.227 500.13ZM290.605 498.15C293.686 497.821 296.738 497.496 299.758 497.176L299.336 493.198C296.315 493.519 293.262 493.844 290.18 494.173L290.605 498.15ZM308.959 496.203C312.073 495.876 315.145 495.553 318.169 495.237L317.753 491.259C314.728 491.575 311.655 491.897 308.54 492.225L308.959 496.203ZM327.309 494.284C330.438 493.959 333.507 493.641 336.509 493.332L336.098 489.353C333.095 489.663 330.025 489.98 326.895 490.306L327.309 494.284ZM345.742 492.382C348.897 492.059 351.963 491.745 354.93 491.443L354.525 487.464C351.557 487.766 348.49 488.079 345.334 488.403L345.742 492.382ZM364.089 490.514C367.294 490.19 370.353 489.882 373.249 489.591L372.85 485.611C369.952 485.902 366.893 486.21 363.686 486.534L364.089 490.514ZM382.46 488.669C385.892 488.327 388.993 488.019 391.728 487.749L391.334 483.768C388.599 484.039 385.496 484.346 382.063 484.689L382.46 488.669ZM400.846 486.851C403.283 486.613 404.818 486.464 405.335 486.414L404.949 482.433C404.431 482.483 402.895 482.632 400.456 482.87L400.846 486.851ZM405.335 486.414C405.398 486.408 405.453 486.402 405.504 486.397L405.082 482.419C405.048 482.423 405.006 482.427 404.949 482.433L405.335 486.414ZM405.874 486.35C405.919 486.344 405.963 486.338 406.022 486.329L405.464 482.368C405.405 482.377 405.352 482.384 405.313 482.39L405.874 486.35ZM406.022 486.329C407.493 486.122 409.069 485.836 410.733 485.473L409.88 481.565C408.302 481.909 406.824 482.177 405.464 482.368L406.022 486.329ZM419.909 482.951C422.751 482.025 425.73 480.928 428.788 479.661L427.257 475.966C424.292 477.194 421.41 478.254 418.669 479.148L419.909 482.951ZM437.394 475.729C440.154 474.348 442.935 472.836 445.701 471.192L443.657 467.754C440.978 469.346 438.281 470.812 435.604 472.152L437.394 475.729ZM453.648 466.051C456.214 464.246 458.733 462.32 461.17 460.274L458.598 457.21C456.254 459.179 453.826 461.036 451.346 462.78L453.648 466.051ZM468.154 453.823C470.376 451.558 472.486 449.172 474.451 446.665L471.303 444.198C469.436 446.58 467.424 448.855 465.298 451.023L468.154 453.823ZM479.871 438.786C481.502 436.052 482.955 433.197 484.196 430.222L480.504 428.682C479.34 431.472 477.974 434.157 476.436 436.737L479.871 438.786ZM487.211 421.096C487.965 418.038 488.495 414.874 488.773 411.606L484.788 411.267C484.527 414.323 484.032 417.28 483.327 420.138L487.211 421.096ZM488.861 401.997C488.759 400.424 488.599 398.831 488.379 397.217L484.416 397.756C484.623 399.278 484.773 400.779 484.869 402.257L488.861 401.997ZM488.379 397.217C488.16 395.605 487.885 394.024 487.556 392.475L483.643 393.305C483.951 394.758 484.21 396.241 484.416 397.756L488.379 397.217ZM484.852 383.243C483.702 380.198 482.336 377.296 480.784 374.533L477.296 376.491C478.753 379.086 480.033 381.806 481.11 384.656L484.852 383.243ZM475.503 366.522C473.561 363.977 471.458 361.573 469.225 359.303L466.373 362.108C468.497 364.267 470.49 366.545 472.324 368.949L475.503 366.522ZM462.169 352.888C459.708 350.88 457.148 348.998 454.522 347.238L452.295 350.561C454.825 352.257 457.283 354.064 459.639 355.987L462.169 352.888ZM446.429 342.292C443.647 340.74 440.826 339.306 437.999 337.985L436.305 341.609C439.052 342.893 441.788 344.283 444.481 345.785L446.429 342.292ZM429.307 334.265C426.3 333.089 423.322 332.034 420.411 331.093L419.18 334.898C422.018 335.817 424.922 336.845 427.85 337.991L429.307 334.265ZM411.364 328.453C408.11 327.607 405.011 326.91 402.132 326.351L401.37 330.278C404.166 330.821 407.184 331.499 410.356 332.324L411.364 328.453ZM392.764 324.907C390.98 324.715 389.372 324.599 387.977 324.556L387.854 328.554C389.127 328.594 390.631 328.701 392.336 328.884L392.764 324.907ZM387.977 324.556C387.789 324.55 387.614 324.545 387.445 324.539L387.303 328.536C387.482 328.543 387.666 328.549 387.854 328.554L387.977 324.556ZM386.437 324.487C386.279 324.476 386.118 324.462 385.947 324.446L385.559 328.427C385.763 328.447 385.958 328.463 386.148 328.477L386.437 324.487ZM385.947 324.446C385.038 324.357 383.545 324.211 381.526 324.012L381.134 327.993C383.155 328.192 384.649 328.338 385.559 328.427L385.947 324.446ZM372.45 323.114C369.742 322.845 366.696 322.54 363.35 322.204L362.95 326.184C366.298 326.52 369.344 326.825 372.054 327.095L372.45 323.114ZM354.318 321.293C351.444 321.001 348.417 320.693 345.251 320.37L344.845 324.349C348.011 324.673 351.04 324.981 353.915 325.272L354.318 321.293ZM336.182 319.439C333.248 319.137 330.222 318.824 327.114 318.501L326.701 322.479C329.81 322.802 332.837 323.115 335.772 323.418L336.182 319.439ZM318.044 317.555C315.077 317.244 312.049 316.925 308.968 316.6L308.547 320.578C311.63 320.903 314.659 321.222 317.627 321.533L318.044 317.555ZM299.885 315.636C296.906 315.319 293.886 314.996 290.831 314.668L290.403 318.645C293.459 318.973 296.481 319.296 299.462 319.614L299.885 315.636ZM281.789 313.691C278.795 313.367 275.774 313.037 272.732 312.704L272.296 316.68C275.34 317.014 278.362 317.343 281.358 317.668L281.789 313.691ZM263.666 311.706C260.658 311.374 257.635 311.038 254.601 310.698L254.157 314.674C257.192 315.013 260.217 315.349 263.227 315.682L263.666 311.706ZM245.557 309.682C242.542 309.341 239.522 308.998 236.503 308.652L236.048 312.626C239.07 312.972 242.091 313.315 245.108 313.656L245.557 309.682ZM227.449 307.61C224.429 307.26 221.414 306.908 218.408 306.555L217.941 310.528C220.949 310.881 223.967 311.233 226.989 311.583L227.449 307.61ZM209.355 305.484C206.32 305.122 203.3 304.759 200.301 304.395L199.82 308.366C202.822 308.73 205.844 309.093 208.881 309.455L209.355 305.484ZM191.258 303.29C188.221 302.915 185.211 302.541 182.234 302.166L181.735 306.135C184.715 306.51 187.729 306.885 190.768 307.26L191.258 303.29ZM173.21 301.018C170.148 300.625 167.128 300.231 164.157 299.84L163.634 303.805C166.609 304.198 169.633 304.591 172.7 304.986L173.21 301.018ZM155.117 298.63C152.04 298.213 149.029 297.797 146.09 297.385L145.533 301.346C148.479 301.759 151.497 302.176 154.579 302.594L155.117 298.63ZM137.075 296.094C133.968 295.639 130.963 295.189 128.072 294.744L127.464 298.698C130.366 299.144 133.381 299.596 136.496 300.051L137.075 296.094ZM119.087 293.319C115.921 292.799 112.937 292.288 110.156 291.788L109.448 295.725C112.252 296.229 115.256 296.743 118.439 297.266L119.087 293.319ZM101.267 290.082C99.711 289.76 98.2626 289.444 96.9274 289.136L96.0261 293.033C97.3961 293.35 98.875 293.672 100.456 293.999L101.267 290.082ZM96.9274 289.136C95.4589 288.796 94.0115 288.452 92.5852 288.103L91.6355 291.989C93.0784 292.342 94.5419 292.689 96.0261 293.033L96.9274 289.136ZM83.9601 285.87C81.0133 285.061 78.1684 284.23 75.4247 283.377L74.2369 287.197C77.0262 288.064 79.9142 288.907 82.9014 289.727L83.9601 285.87ZM67.0034 280.575C64.1178 279.547 61.3639 278.489 58.7404 277.402L57.2089 281.097C59.8992 282.212 62.7164 283.294 65.6607 284.343L67.0034 280.575ZM50.6969 273.775C47.9386 272.419 45.3616 271.022 42.9631 269.584L40.9063 273.015C43.4083 274.515 46.0835 275.964 48.932 277.365L50.6969 273.775ZM35.7169 264.708C33.2914 262.864 31.125 260.962 29.211 259.001L26.349 261.796C28.4132 263.91 30.7295 265.941 33.2959 267.892L35.7169 264.708ZM23.8254 252.358C22.2266 249.922 20.9571 247.4 20.008 244.79L16.2487 246.156C17.3077 249.069 18.7191 251.868 20.4813 254.553L23.8254 252.358ZM18.0973 236.551C17.9443 235.16 17.8676 233.742 17.8676 232.296H13.8676C13.8676 233.884 13.9518 235.448 14.1213 236.988L18.0973 236.551ZM17.8676 232.296C17.8676 230.868 17.9422 229.459 18.0859 228.068L14.107 227.657C13.9496 229.182 13.8676 230.729 13.8676 232.296H17.8676ZM19.79 219.773C20.6307 217.047 21.7226 214.416 23.0164 211.893L19.4571 210.068C18.0652 212.782 16.8821 215.629 15.9677 218.594L19.79 219.773ZM27.5036 204.596C29.1985 202.248 31.05 200.036 33.0011 197.978L30.0981 195.226C28.0325 197.405 26.0659 199.754 24.2603 202.255L27.5036 204.596ZM39.3127 192.103C41.6275 190.203 43.9843 188.518 46.3027 187.072L44.186 183.678C41.7185 185.217 39.221 187.003 36.7743 189.012L39.3127 192.103ZM53.8718 183.128C55.2617 182.554 56.5848 182.097 57.8194 181.76L56.7645 177.901C55.3489 178.288 53.8674 178.802 52.3443 179.431L53.8718 183.128ZM57.8185 181.76L57.8256 181.758L56.7724 177.899L56.7654 177.901L57.8185 181.76ZM57.8397 181.754L57.8468 181.752L56.7937 177.893L56.7866 177.895L57.8397 181.754ZM57.8415 181.753C57.912 181.734 59.6013 181.278 62.5503 180.474L61.4982 176.615C58.5528 177.418 56.8666 177.873 56.799 177.892L57.8415 181.753ZM72.0666 177.866C74.91 177.083 78.0982 176.202 81.5548 175.242L80.4841 171.388C77.0307 172.347 73.8454 173.228 71.0046 174.01L72.0666 177.866ZM91.0449 172.594C94.0907 171.74 97.2623 170.847 100.522 169.925L99.4333 166.076C96.1767 166.998 93.0082 167.889 89.9654 168.742L91.0449 172.594ZM109.987 167.233C113.109 166.341 116.276 165.43 119.459 164.509L118.347 160.667C115.169 161.587 112.006 162.496 108.887 163.387L109.987 167.233ZM128.916 161.754C132.089 160.823 135.25 159.889 138.369 158.958L137.226 155.125C134.113 156.054 130.958 156.987 127.79 157.916L128.916 161.754ZM147.801 156.115C151.032 155.13 154.181 154.159 157.212 153.208L156.015 149.391C152.996 150.338 149.857 151.307 146.635 152.289L147.801 156.115ZM166.619 150.202C169.995 149.099 173.134 148.042 175.967 147.05L174.645 143.275C171.845 144.256 168.733 145.303 165.376 146.4L166.619 150.202ZM185.31 143.544C187.222 142.751 188.809 142.016 189.959 141.359L187.973 137.886C187.042 138.418 185.638 139.077 183.777 139.849L185.31 143.544ZM189.959 141.359C191.045 140.737 192.447 139.984 194.15 139.066L192.253 135.544C190.57 136.451 189.114 137.234 187.973 137.886L189.959 141.359ZM202.713 134.328C205.305 132.836 208.136 131.143 211.137 129.231L208.987 125.858C206.046 127.732 203.267 129.394 200.718 130.861L202.713 134.328ZM219.281 123.749C221.845 121.925 224.476 119.955 227.141 117.829L224.647 114.702C222.043 116.779 219.471 118.705 216.962 120.489L219.281 123.749ZM234.661 111.462C237.043 109.321 239.426 107.052 241.787 104.648L238.933 101.846C236.634 104.187 234.311 106.399 231.987 108.487L234.661 111.462ZM248.455 97.4037C250.56 94.96 252.627 92.3983 254.638 89.7139L251.437 87.3159C249.482 89.9247 247.473 92.4156 245.425 94.7931L248.455 97.4037ZM260.276 81.61C262.025 78.8947 263.711 76.0699 265.318 73.1319L261.809 71.2124C260.249 74.0641 258.612 76.8065 256.913 79.4433L260.276 81.61ZM269.741 64.3002C271.081 61.3609 272.341 58.321 273.509 55.1774L269.759 53.7845C268.626 56.8366 267.402 59.7875 266.101 62.6403L269.741 64.3002ZM276.611 45.8192C277.518 42.7205 278.336 39.5309 279.056 36.2482L275.148 35.3916C274.448 38.5844 273.653 41.6848 272.772 44.6955L276.611 45.8192ZM280.846 26.5496C281.325 23.3747 281.714 20.1201 282.006 16.7839L278.021 16.4354C277.736 19.6891 277.357 22.8609 276.891 25.9528L280.846 26.5496ZM282.571 6.96299C282.617 5.32691 282.64 3.67264 282.64 2H278.64C278.64 3.63514 278.617 5.25167 278.572 6.8498L282.571 6.96299Z" fill="url(#paint2_radial_4_817)"/>
</g>
<defs>
<filter id="filter0_b_4_817" x="-120.132" y="-120.132" width="729.126" height="931.244" filterUnits="userSpaceOnUse" color-interpolation-filters="sRGB">
<feFlood flood-opacity="0" result="BackgroundImageFix"/>
<feGaussianBlur in="BackgroundImageFix" stdDeviation="60.0662"/>
<feComposite in2="SourceAlpha" operator="in" result="effect1_backgroundBlur_4_817"/>
<feBlend mode="normal" in="SourceGraphic" in2="effect1_backgroundBlur_4_817" result="shape"/>
</filter>
<radialGradient id="paint0_radial_4_817" cx="0" cy="0" r="1" gradientUnits="userSpaceOnUse" gradientTransform="translate(260.528 742.389) rotate(-167.884) scale(254.368 166.102)">
<stop stop-color="white"/>
<stop offset="1" stop-color="#00B5AA"/>
</radialGradient>
<radialGradient id="paint1_radial_4_817" cx="0" cy="0" r="1" gradientUnits="userSpaceOnUse" gradientTransform="translate(2 43.6393) scale(117.407 253.072)">
<stop stop-color="#00B5AA"/>
<stop offset="1" stop-color="white" stop-opacity="0.19"/>
</radialGradient>
<radialGradient id="paint2_radial_4_817" cx="0" cy="0" r="1" gradientUnits="userSpaceOnUse" gradientTransform="translate(487.144 43.6394) rotate(90) scale(258.79 102.794)">
<stop stop-color="white"/>
<stop offset="1" stop-color="#00B5AA" stop-opacity="0.68"/>
</radialGradient>
</defs>
</svg>
