<svg width="58" height="40" viewBox="0 0 58 40" fill="none" xmlns="http://www.w3.org/2000/svg">
<path d="M51.9515 1.34928C51.5921 0.602862 50.6957 0.289113 49.9493 0.648497L37.7857 6.50501C37.0393 6.86439 36.7256 7.76082 37.085 8.50723C37.4443 9.25365 38.3408 9.5674 39.0872 9.20801L49.8992 4.00223L55.105 14.8142C55.4644 15.5607 56.3608 15.8744 57.1072 15.515C57.8536 15.1556 58.1674 14.2592 57.808 13.5128L51.9515 1.34928ZM1.41822 39.9793C8.22445 38.0033 18.9378 34.0202 28.8943 27.883C38.8184 21.7658 48.2082 13.3743 52.0158 2.49553L49.1842 1.50447C45.7127 11.423 37.0183 19.3512 27.3201 25.3292C17.6543 31.2872 7.20711 35.1748 0.581785 37.0983L1.41822 39.9793Z" fill="#00FFB1"/>
</svg>
