<svg width="29" height="21" viewBox="0 0 29 21" fill="none" xmlns="http://www.w3.org/2000/svg">
<path d="M26.2307 0.817325C26.0813 0.506972 25.7085 0.376517 25.3982 0.525946L20.3407 2.96104C20.0303 3.11047 19.8999 3.4832 20.0493 3.79355C20.1987 4.1039 20.5715 4.23436 20.8818 4.08493L25.3774 1.9204L27.5419 6.41595C27.6913 6.72631 28.064 6.85676 28.3744 6.70733C28.6848 6.5579 28.8152 6.18518 28.6658 5.87482L26.2307 0.817325ZM0.403383 20.4272C3.88544 19.4163 9.36726 17.378 14.4597 14.239C19.5387 11.1083 24.3209 6.8269 26.2574 1.29393L25.0801 0.881855C23.2833 6.01555 18.7903 10.1043 13.8052 13.1771C8.83357 16.2416 3.46243 18.2402 0.0556015 19.2293L0.403383 20.4272Z" fill="#00FFB1"/>
</svg>
