<svg width="216" height="38" viewBox="0 0 216 38" fill="none" xmlns="http://www.w3.org/2000/svg">
<path d="M49.7745 16.8068H61.7235C61.7235 15.8019 61.3559 14.944 60.6205 14.2332C59.9096 13.4979 59.0518 13.1302 58.0469 13.1302H53.4511C52.4462 13.1302 51.5761 13.4979 50.8407 14.2332C50.13 14.944 49.7745 15.8019 49.7745 16.8068ZM53.4511 28.7557C51.3923 28.7557 49.652 28.0449 48.2303 26.6233C46.8088 25.2016 46.0979 23.4615 46.0979 21.4025V16.8068C46.0979 14.7479 46.8088 13.0077 48.2303 11.586C49.652 10.1644 51.3923 9.45362 53.4511 9.45362H58.0469C60.1059 9.45362 61.846 10.1644 63.2677 11.586C64.6892 13.0077 65.4001 14.7479 65.4001 16.8068V20.4834H49.7745V21.4025C49.7745 22.4074 50.13 23.2776 50.8407 24.0129C51.5761 24.7238 52.4462 25.0791 53.4511 25.0791H62.6427V28.7557H53.4511ZM76.5016 28.7557C74.4428 28.7557 72.7026 28.0449 71.2809 26.6233C69.8593 25.2016 69.1484 23.4615 69.1484 21.4025V2.10042H72.825V9.45362H81.0974V13.1302H72.825V21.4025C72.825 22.4074 73.1805 23.2776 73.8913 24.0129C74.6266 24.7238 75.4968 25.0791 76.5016 25.0791H81.0974V28.7557H76.5016ZM88.2281 21.4025C88.2281 22.4074 88.5834 23.2776 89.2943 24.0129C90.0295 24.7238 90.8997 25.0791 91.9047 25.0791H96.5003V28.7557H91.9047C89.8457 28.7557 88.1054 28.0449 86.6839 26.6233C85.2622 25.2016 84.5515 23.4615 84.5515 21.4025V16.8068H100.177C100.177 15.8019 99.8093 14.944 99.0739 14.2332C98.3632 13.4979 97.5054 13.1302 96.5003 13.1302H87.3089V9.45362H96.5003C98.5593 9.45362 100.3 10.1644 101.721 11.586C103.143 13.0077 103.854 14.7479 103.854 16.8068V28.7557H100.177V20.4834H88.2281V21.4025ZM111.997 8.97566V12.6522H127.622V16.3289H127.438V21.4025C127.438 23.4615 126.728 25.2016 125.306 26.6233C123.884 28.0449 122.144 28.7557 120.085 28.7557H111.997V25.0791H120.085C121.09 25.0791 121.948 24.7238 122.659 24.0129C123.394 23.2776 123.762 22.4074 123.762 21.4025V16.3289H108.32V8.97566C108.32 6.94128 109.031 5.21328 110.452 3.79166C111.899 2.34554 113.639 1.62247 115.673 1.62247H123.762V5.29906H115.673C114.668 5.29906 113.798 5.66672 113.063 6.40204C112.352 7.11285 111.997 7.97072 111.997 8.97566ZM163.688 9.45362H167.916L159.827 28.7557H155.599L149.643 14.5273L143.687 28.7557H139.459L131.371 9.45362H135.599L141.555 23.682L147.511 9.45362H151.776L157.732 23.682L163.688 9.45362ZM172.28 21.4025C172.28 22.4074 172.636 23.2776 173.346 24.0129C174.082 24.7238 174.952 25.0791 175.956 25.0791H180.552V28.7557H175.956C173.898 28.7557 172.158 28.0449 170.736 26.6233C169.315 25.2016 168.603 23.4615 168.603 21.4025V16.8068H184.229C184.229 15.8019 183.861 14.944 183.126 14.2332C182.416 13.4979 181.557 13.1302 180.552 13.1302H171.36V9.45362H180.552C182.611 9.45362 184.351 10.1644 185.773 11.586C187.194 13.0077 187.906 14.7479 187.906 16.8068V28.7557H184.229V20.4834H172.28V21.4025ZM196.049 27.7631V36.1089H192.372V16.8068C192.372 14.7479 193.083 13.0077 194.505 11.586C195.926 10.1644 197.667 9.45362 199.725 9.45362H204.321C206.38 9.45362 208.12 10.1644 209.541 11.586C210.964 13.0077 211.674 14.7479 211.674 16.8068V21.4025C211.674 23.4615 210.964 25.2016 209.541 26.6233C208.12 28.0449 206.38 28.7557 204.321 28.7557H199.725C198.401 28.7557 197.176 28.4249 196.049 27.7631ZM196.049 16.8068V21.4025C196.049 22.4074 196.404 23.2776 197.115 24.0129C197.85 24.7238 198.72 25.0791 199.725 25.0791H204.321C205.325 25.0791 206.184 24.7238 206.895 24.0129C207.63 23.2776 207.997 22.4074 207.997 21.4025V16.8068C207.997 15.8019 207.63 14.944 206.895 14.2332C206.184 13.4979 205.325 13.1302 204.321 13.1302H199.725C198.72 13.1302 197.85 13.4979 197.115 14.2332C196.404 14.944 196.049 15.8019 196.049 16.8068Z" fill="white"/>
<path d="M4.18066 5.29089H36.7731L24.0748 23.0685" stroke="#00F5AB" stroke-width="5.45426"/>
<path d="M39.3128 30.2644H6.297L19.1603 12.0634" stroke="#00958C" stroke-width="5.45426"/>
</svg>
